<svg width="513" height="581" viewBox="0 0 513 581" fill="none" xmlns="http://www.w3.org/2000/svg">
<path d="M78.1486 389.067C77.986 389.158 61.7166 398.27 48.4073 416.903C31.1126 441.121 29.3379 461.219 40.7859 482.07C42.8393 483.523 48.7593 487.922 52.2059 492.582C53.7779 494.711 53.3272 497.713 51.2006 499.286C49.0712 500.858 46.0699 500.409 44.4966 498.281C42.9913 496.242 40.5713 494.05 38.4406 492.321C38.2753 492.474 38.1032 492.621 37.9259 492.763C38.3192 496.115 39.4979 500.205 42.6113 503.458C44.4406 505.37 44.3752 508.403 42.4619 510.234C40.5499 512.062 37.5153 511.997 35.6859 510.085C31.7459 505.964 29.8019 501.185 28.8913 496.887C27.7486 501.57 29.2633 505.721 29.3806 506.03C30.3406 508.482 29.1472 511.257 26.6926 512.232C24.2339 513.213 21.4459 512.014 20.4646 509.556C18.5766 504.822 17.3192 495.099 23.0672 486.847C23.0672 486.847 2.40326 444.467 33.9806 405.537C43.8406 393.378 53.3873 384.049 60.4726 378.811C65.5486 375.059 69.0166 373.145 69.3473 372.963C73.7979 370.541 79.3819 372.178 81.8059 376.626C84.2286 381.075 82.6006 386.646 78.1486 389.067Z" fill="#D11313"/>
<path d="M77.5487 374.798C75.3967 373.49 72.6194 373.329 70.2474 374.62C70.1034 374.699 66.6594 376.581 61.594 380.328C54.0687 385.889 44.5394 395.51 35.4434 406.725C5.02605 444.229 24.562 485.611 24.7647 486.024C25.062 486.64 25.0047 487.368 24.6154 487.928C19.2194 495.67 20.5687 504.728 22.2154 508.857C22.5034 509.578 23.058 510.149 23.7687 510.452C24.482 510.759 25.2713 510.769 25.9927 510.481C27.4753 509.892 28.206 508.205 27.622 506.72C27.4247 506.193 25.79 501.629 27.058 496.441C27.2674 495.586 28.0394 494.99 28.9181 495.004C29.7981 495.016 30.55 495.634 30.7327 496.498C31.7607 501.345 33.8834 505.477 37.0461 508.782C38.1514 509.94 39.9967 509.981 41.158 508.873C41.7167 508.337 42.0367 507.614 42.0527 506.837C42.07 506.06 41.7834 505.324 41.2461 504.762C38.4021 501.789 36.6047 497.716 36.0487 492.985C35.9727 492.337 36.2367 491.694 36.7474 491.289C36.8887 491.176 37.026 491.059 37.1607 490.936C37.8487 490.3 38.894 490.273 39.626 490.857C41.5967 492.459 44.302 494.849 46.0087 497.161C46.4713 497.785 47.1487 498.19 47.9154 498.306C48.6834 498.424 49.4501 498.232 50.0741 497.77C50.6981 497.308 51.1061 496.63 51.2207 495.864C51.3367 495.097 51.1474 494.33 50.6834 493.705C47.362 489.213 41.4314 484.841 39.6914 483.609C39.4594 483.444 39.2673 483.228 39.1287 482.978C27.0367 460.954 29.4233 440.237 46.87 415.81C60.33 396.961 76.5433 387.801 77.226 387.421C77.2313 387.417 77.2367 387.414 77.242 387.412C78.9513 386.484 80.194 384.944 80.742 383.077C81.29 381.212 81.078 379.24 80.1474 377.528C79.5154 376.365 78.6074 375.444 77.5487 374.798ZM21.4393 513.478C20.246 512.753 19.27 511.649 18.714 510.254C16.8487 505.578 15.314 495.516 20.926 486.666C18.0487 479.905 3.25806 440.423 32.5154 404.348C41.8021 392.897 51.5834 383.036 59.3514 377.293C64.5367 373.46 68.0607 371.514 68.4461 371.305C73.8074 368.387 80.546 370.368 83.462 375.724C84.8767 378.32 85.1967 381.306 84.3647 384.137C83.534 386.968 81.6514 389.302 79.0607 390.717C78.6887 390.926 62.8127 399.981 49.9434 418C33.5514 440.953 31.166 460.338 42.2367 480.788C44.806 482.634 50.3353 486.881 53.7233 491.462C55.9113 494.426 55.2833 498.616 52.3233 500.802C50.8873 501.864 49.126 502.301 47.362 502.038C45.598 501.774 44.0434 500.838 42.9834 499.404C42.4327 498.659 41.6967 497.83 40.8047 496.942C41.5314 498.962 42.5927 500.709 43.9753 502.156C45.21 503.445 45.8674 505.134 45.8274 506.918C45.7874 508.704 45.0553 510.362 43.7673 511.598C41.106 514.143 36.8727 514.05 34.3247 511.39C33.3234 510.344 32.4114 509.228 31.594 508.045C31.4887 510.594 29.9114 512.982 27.3887 513.984C25.3647 514.79 23.174 514.533 21.4393 513.478Z" fill="#AD0000"/>
<path d="M348.4 258.836C348.555 258.936 364.235 269.028 386.936 272.038C416.436 275.949 435.018 268.087 448.06 248.195C448.383 245.701 449.489 238.411 451.987 233.179C453.13 230.79 455.99 229.78 458.379 230.921C460.767 232.064 461.777 234.925 460.635 237.313C459.542 239.6 458.741 242.765 458.213 245.458C458.425 245.532 458.637 245.615 458.845 245.707C461.621 243.786 464.678 240.826 466.09 236.551C466.921 234.039 469.63 232.673 472.144 233.504C474.657 234.335 476.021 237.045 475.192 239.558C473.404 244.97 470.095 248.929 466.726 251.751C471.399 250.562 474.353 247.279 474.57 247.031C476.283 245.031 479.296 244.784 481.308 246.493C483.326 248.204 483.577 251.229 481.866 253.247C478.57 257.136 470.577 262.81 460.592 261.603C460.592 261.603 432.862 299.736 383.665 290.118C368.301 287.114 355.582 283.06 347.633 279.261C341.938 276.539 338.621 274.375 338.306 274.167C334.078 271.375 332.903 265.675 335.696 261.447C338.492 257.214 344.174 256.039 348.4 258.836Z" fill="#D11313"/>
<path d="M465.516 250.302C469.315 247.123 471.969 243.308 473.404 238.963C473.905 237.454 473.078 235.797 471.554 235.292C470.818 235.046 470.031 235.105 469.335 235.456C468.642 235.805 468.127 236.404 467.882 237.141C466.592 241.046 463.839 244.545 459.919 247.254C459.385 247.625 458.694 247.693 458.095 247.434C457.931 247.363 457.765 247.296 457.598 247.239C456.708 246.929 456.182 246.012 456.362 245.095C456.851 242.608 457.692 239.096 458.934 236.5C459.268 235.8 459.312 235.013 459.052 234.279C458.794 233.544 458.266 232.959 457.566 232.624C456.12 231.933 454.379 232.548 453.688 233.994C451.277 239.035 450.201 246.324 449.93 248.437C449.892 248.72 449.792 248.991 449.636 249.229C435.859 270.243 416.445 277.854 386.687 273.908C363.593 270.847 347.53 260.522 347.37 260.418C347.366 260.415 347.363 260.412 347.359 260.41C345.736 259.336 343.795 258.962 341.89 259.355C339.985 259.746 338.345 260.858 337.271 262.485C335.055 265.837 335.986 270.372 339.347 272.595C339.485 272.686 342.776 274.849 348.447 277.559C356.889 281.591 369.856 285.496 384.028 288.267C431.418 297.532 458.797 260.865 459.069 260.491C459.471 259.94 460.139 259.647 460.819 259.729C470.188 260.861 477.552 255.42 480.426 252.03C480.93 251.438 481.173 250.687 481.106 249.91C481.042 249.133 480.681 248.431 480.085 247.929C478.873 246.898 477.04 247.045 475.984 248.275C475.629 248.68 472.362 252.264 467.189 253.578C466.338 253.793 465.446 253.393 465.046 252.609C464.913 252.345 464.843 252.061 464.839 251.781C464.834 251.223 465.069 250.678 465.516 250.302ZM483.306 254.466C480.054 258.302 471.888 264.379 461.44 263.577C456.821 269.289 428.891 300.877 383.305 291.964C368.833 289.135 355.537 285.124 346.823 280.959C341.018 278.186 337.635 275.978 337.268 275.737C332.174 272.372 330.761 265.498 334.125 260.405C335.753 257.938 338.241 256.252 341.131 255.659C344.022 255.065 346.968 255.634 349.431 257.257C349.761 257.469 365.178 267.253 387.186 270.171C415.145 273.878 433.382 266.89 446.247 247.518C446.673 244.383 447.828 237.508 450.286 232.366C451.875 229.044 455.868 227.634 459.191 229.22C460.8 229.989 462.014 231.339 462.607 233.021C463.201 234.702 463.104 236.516 462.337 238.126C461.9 239.036 461.514 240.105 461.184 241.204C462.628 239.614 463.671 237.859 464.301 235.958C464.859 234.262 466.045 232.89 467.639 232.085C469.231 231.284 471.043 231.151 472.735 231.711C476.23 232.868 478.133 236.646 476.981 240.148C476.526 241.524 475.967 242.853 475.306 244.134C477.611 243.026 480.457 243.297 482.524 245.052C484.052 246.345 484.854 248.189 484.882 250.05C484.908 251.609 484.391 253.183 483.306 254.466Z" fill="#AD0000"/>
<path d="M260.974 561.657C258.702 561.657 256.523 561.839 254.506 562.175L262.669 492.021C262.695 491.786 262.715 491.529 262.723 491.287C262.89 486.334 259.01 482.181 254.055 482.014C249.103 481.847 244.95 485.729 244.783 490.682L242.137 569.209C242.129 569.475 242.146 569.737 242.173 569.998C242.169 570.068 242.161 570.135 242.161 570.207C242.161 574.93 250.583 578.758 260.973 578.758C271.362 578.758 279.785 574.93 279.785 570.207C279.785 565.485 271.365 561.657 260.974 561.657Z" fill="#D11313"/>
<path d="M191.41 482.112C186.545 481.426 182.087 485.01 181.258 489.852L168.783 562.578C166.229 561.99 163.342 561.656 160.282 561.656C149.893 561.656 141.47 565.483 141.47 570.206C141.47 574.929 149.893 578.757 160.282 578.757C169.131 578.757 175.242 576.549 178.066 572.452C178.722 571.501 179.121 570.395 179.407 569.277L198.861 493.222C198.918 492.997 198.971 492.748 199.011 492.514C199.865 487.541 196.446 482.819 191.41 482.112Z" fill="#D11313"/>
<path d="M253.754 483.78C251.914 483.78 250.177 484.462 248.833 485.721C247.427 487.036 246.617 488.818 246.551 490.741C246.571 491.172 246.281 499.6 245.563 520.157C244.849 540.617 243.871 568.634 243.927 570.086C243.93 570.137 243.933 570.241 243.93 570.293C243.867 571.559 244.705 572.721 246.421 573.75C252.951 577.67 269.002 577.677 275.529 573.762C277.246 572.732 278.085 571.566 278.019 570.294C278.018 567.006 270.729 563.425 260.974 563.425C258.846 563.425 256.769 563.592 254.797 563.92C254.247 564.011 253.689 563.84 253.286 563.457C252.883 563.073 252.685 562.522 252.75 561.97L260.913 491.818C261.154 489.833 260.529 487.817 259.207 486.281C257.885 484.748 255.991 483.838 254.006 483.782C253.923 483.781 253.837 483.78 253.754 483.78ZM260.994 580.232C254.715 580.233 248.434 579.081 244.602 576.784C240.965 574.602 240.306 571.961 240.395 570.126C240.375 567.937 240.833 554.285 242.029 520.033C242.542 505.373 243.025 491.524 243.017 490.726C243.113 487.754 244.322 485.097 246.417 483.136C248.514 481.178 251.233 480.176 254.115 480.248C257.082 480.333 259.917 481.689 261.883 483.972C263.855 486.261 264.781 489.272 264.426 492.235L256.526 560.118C257.978 559.964 259.466 559.889 260.975 559.889C272.709 559.889 281.555 564.324 281.555 570.206C281.647 571.957 280.994 574.609 277.349 576.793C273.529 579.086 267.263 580.232 260.994 580.232Z" fill="#AD0000"/>
<path d="M160.282 563.425C150.527 563.425 143.238 567.005 143.238 570.207C143.238 573.409 150.527 576.99 160.282 576.99C169.951 576.99 177.018 573.523 177.314 570.414C177.323 570.325 177.338 570.233 177.36 570.145L197.149 492.785C197.193 492.606 197.236 492.403 197.27 492.218C197.939 488.3 195.299 484.569 191.383 483.897C187.467 483.225 183.734 485.864 183.062 489.782L170.524 562.881C170.442 563.361 170.167 563.785 169.763 564.054C169.356 564.323 168.859 564.411 168.385 564.305C165.859 563.721 163.133 563.425 160.282 563.425ZM160.282 580.525C148.549 580.525 139.703 576.09 139.703 570.207C139.703 564.325 148.55 559.889 160.282 559.889C162.727 559.889 165.098 560.088 167.349 560.485L179.578 489.181C180.579 483.345 186.144 479.409 191.983 480.409C197.82 481.41 201.754 486.975 200.754 492.814C200.707 493.092 200.642 493.389 200.574 493.657L180.818 570.898C180.147 576.399 171.371 580.525 160.282 580.525Z" fill="#AD0000"/>
<path d="M263.187 40.3904L265.69 15.8665C266.445 10.4158 257.691 4.70245 246.138 3.10379C234.586 1.50513 224.609 4.62642 223.855 10.0744L221.615 34.3705C220.093 34.4358 218.561 34.5318 217.026 34.6531L211.966 8.99577C210.978 3.58244 200.875 0.89711 189.402 2.99577C177.931 5.09311 169.433 11.1811 170.423 16.5931L175.515 44.4065C172.471 45.5851 169.429 46.8651 166.389 48.2425L150.994 21.6998C148.073 17.0385 137.693 18.2785 127.813 24.4704C117.931 30.6651 112.286 39.4625 115.209 44.1251L129.105 69.4664C74.9727 106.905 69.8367 145.848 69.8367 145.848L338.407 168.21C334.546 96.5051 304.043 55.0798 263.187 40.3904Z" fill="#D11313"/>
<path d="M72.5581 143.801L335.991 165.735C331.929 101.847 305.861 58.1435 262.422 42.5208C261.442 42.1701 260.827 41.1942 260.934 40.1608L263.437 15.6342C263.945 11.9568 256.515 6.82614 245.827 5.34613C235.143 3.86746 226.599 6.78618 226.099 10.3862L223.873 34.5755C223.767 35.7075 222.841 36.5889 221.713 36.6302C220.215 36.6942 218.714 36.7901 217.207 36.9075C216.061 36.9995 215.027 36.2168 214.805 35.0901L209.745 9.43286C209.087 5.82886 200.427 3.27684 189.813 5.22218C184.586 6.17818 179.879 8.01414 176.559 10.3902C173.81 12.3595 172.349 14.5235 172.653 16.1808L177.745 43.9968C177.941 45.0675 177.349 46.1248 176.334 46.5168C173.362 47.6675 170.33 48.9422 167.326 50.3022C166.267 50.7835 165.014 50.3835 164.431 49.3768L149.035 22.8329C148.179 21.4702 145.641 20.8568 142.281 21.2595C138.209 21.7488 133.514 23.5662 129.013 26.3862C124.51 29.2075 120.818 32.6541 118.613 36.0901C116.786 38.9381 116.23 41.4901 117.123 42.9155L131.089 68.3728C131.647 69.3902 131.345 70.6648 130.39 71.3248C85.2087 102.575 74.6754 134.962 72.5581 143.801ZM338.693 170.456C338.537 170.476 338.378 170.479 338.215 170.465L69.6474 148.105C69.0288 148.054 68.4594 147.751 68.0701 147.269C67.6807 146.786 67.5075 146.166 67.5875 145.552C67.8008 143.937 73.3634 105.979 126.138 68.7728L113.218 45.2128C111.382 42.2875 111.918 38.1395 114.798 33.6475C117.355 29.6608 121.55 25.7195 126.606 22.5502C131.662 19.3808 137.011 17.3422 141.742 16.7635C147.042 16.1288 151.007 17.4555 152.911 20.4955L167.326 45.3435C169.203 44.5155 171.085 43.7262 172.951 42.9808L168.194 16.9995C167.549 13.4689 169.582 9.8168 173.921 6.71013C177.771 3.95146 183.126 1.84082 188.997 0.767487C202.109 -1.62317 212.942 1.73151 214.197 8.58884L218.862 32.2515C219.091 32.2368 219.317 32.2235 219.543 32.2088L221.602 9.86885C222.57 2.85953 233.253 -0.965851 246.45 0.859482C259.654 2.68748 268.89 9.27283 267.935 16.1782L265.621 38.8755C310.465 55.8728 337.093 101.673 340.667 168.089C340.703 168.741 340.454 169.379 339.985 169.835C339.627 170.178 339.174 170.394 338.693 170.456Z" fill="#AD0000"/>
<path d="M107.453 59.761C107.407 60.2997 107.257 60.8236 107.014 61.325C103.825 73.5863 106.455 87.617 106.455 87.617L112.169 127.756L87.6539 150.997L10.0898 224.53C13.4018 172.509 38.3592 137.08 38.3592 137.08C26.0658 82.1436 39.5552 54.2196 39.5552 54.2196C40.0952 47.6276 55.7259 43.525 74.4805 45.061C93.2259 46.593 107.993 53.1743 107.453 59.761Z" fill="#FC3838"/>
<path d="M107.452 59.7611C107.407 60.2998 107.257 60.8237 107.014 61.3251C103.825 73.5864 106.455 87.6171 106.455 87.6171L112.169 127.756L87.6539 150.997L64.5898 149.357C64.5898 149.357 103.57 100.424 91.3165 76.1104C79.0565 51.7957 39.5552 54.2211 39.5552 54.2211C40.0952 47.6291 55.7258 43.5264 74.4805 45.0624C93.2258 46.5931 107.993 53.1744 107.452 59.7611Z" fill="#EA2A21"/>
<path d="M58.4793 47.5263C49.03 48.7383 43.27 51.9183 41.5686 55.2463C41.462 55.4729 28.6286 83.2196 40.5713 136.586C40.7113 137.209 40.5806 137.862 40.2139 138.385C39.9779 138.721 17.4433 171.257 12.8206 218.818L109.763 126.913L104.213 87.9383C104.201 87.8543 104.193 87.773 104.19 87.689C104.17 87.0756 103.737 72.5183 105.203 59.5103C105.281 58.8156 104.963 58.0303 104.259 57.1743C101.11 53.3476 90.3899 48.6316 74.2926 47.3183C68.2259 46.8209 62.9393 46.9556 58.4793 47.5263ZM10.3766 226.777C9.95797 226.83 9.52459 226.769 9.12592 226.581C8.28326 226.186 7.76862 225.316 7.82729 224.386C10.8633 176.733 32.1633 142.373 35.9393 136.626C23.9793 82.1809 36.9499 54.3956 37.5113 53.233C41.5286 45.3636 56.1046 41.285 74.6606 42.8009C90.0553 44.0583 103.047 48.5703 107.758 54.293C109.641 56.5849 109.855 58.6703 109.706 60.0156C108.345 72.0796 108.675 85.9823 108.715 87.4249L114.411 127.434C114.514 128.161 114.261 128.893 113.727 129.398L11.6473 226.174C11.2886 226.513 10.842 226.717 10.3766 226.777Z" fill="#AD0000"/>
<path d="M131.121 29.7422C138.326 25.2288 145.229 23.2675 146.542 25.3622C147.854 27.4582 143.078 32.8142 135.875 37.3288C128.671 41.8435 121.769 43.8035 120.455 41.7089C119.143 39.6142 123.918 34.2568 131.121 29.7422Z" fill="#EA2A21"/>
<path d="M46.7819 56.0731C47.0659 52.5958 59.2152 50.7478 73.9192 51.9491C88.6232 53.1505 100.313 56.9438 100.027 60.4225C99.7432 63.9025 87.5939 65.7478 72.8899 64.5478C58.1872 63.3478 46.4979 59.5531 46.7819 56.0731Z" fill="#D11313"/>
<path d="M190.487 8.8944C198.593 7.41173 205.482 7.95304 205.875 10.101C206.269 12.2504 200.015 15.1943 191.91 16.677C183.806 18.1597 176.917 17.6197 176.523 15.4691C176.13 13.3197 182.382 10.3757 190.487 8.8944Z" fill="#EA2A21"/>
<path d="M230.654 10.9997C230.937 8.9584 237.485 8.17836 245.278 9.25703C253.074 10.3357 259.163 12.8651 258.882 14.9051C258.599 16.9477 252.05 17.7277 244.257 16.6477C236.461 15.569 230.371 13.0397 230.654 10.9997Z" fill="#EA2A21"/>
<path d="M122.69 40.3023C124.437 40.2889 128.865 39.0449 134.665 35.4089C140.466 31.7756 143.522 28.3356 144.291 26.7676C142.545 26.7796 138.117 28.0263 132.318 31.6609C126.517 35.2956 123.459 38.7356 122.69 40.3023ZM123.994 44.7249C121.646 45.0249 119.605 44.6289 118.529 42.9102C115.05 37.3582 128.382 28.7823 129.911 27.8223C131.443 26.8623 144.975 18.6089 148.453 24.1583C148.453 24.1583 148.453 24.1583 148.454 24.1583C151.934 29.7116 138.603 38.2876 137.071 39.2462C136.013 39.9089 129.234 44.0529 123.994 44.7249Z" fill="#AD0000"/>
<path d="M49.206 56.2759C50.77 57.9919 59.3046 61.1692 73.07 62.2932C86.8366 63.4159 95.774 61.6652 97.598 60.2266C96.034 58.5106 87.4966 55.3332 73.7313 54.2079C59.962 53.0825 51.0247 54.8359 49.206 56.2759ZM91.202 66.6266C83.5193 67.6119 74.3833 66.9439 72.702 66.8066C65.4193 66.2132 58.6047 64.9746 53.5113 63.3226C47.2193 61.2799 44.278 58.8492 44.5193 55.8932C44.762 52.9359 48.0566 51.0145 54.598 50.0185C59.8926 49.2239 66.818 49.0999 74.098 49.6932C77.0526 49.9359 102.957 52.2932 102.278 60.6092V60.6106C101.989 64.1892 97.01 65.8812 91.202 66.6266Z" fill="#AD0000"/>
<path d="M179.567 14.9196C181.515 15.3463 185.705 15.517 191.498 14.4556C197.293 13.3956 201.153 11.7556 202.822 10.6676C200.875 10.2383 196.687 10.0689 190.89 11.1289C185.098 12.1889 181.237 13.8303 179.567 14.9196ZM189.375 19.3649C184.262 20.0196 175.139 20.5156 174.291 15.8849C173.227 10.0596 187.253 7.18891 190.075 6.67425C194.182 5.92491 198.15 5.64359 201.245 5.88759C205.389 6.21293 207.695 7.49694 208.099 9.70361C209.163 15.5263 195.135 18.3969 192.315 18.9116C191.737 19.0156 190.687 19.1969 189.375 19.3649Z" fill="#AD0000"/>
<path d="M233.935 11.4692C235.693 12.4119 239.333 13.6985 244.571 14.4225C249.81 15.1479 253.663 14.8986 255.611 14.4692C253.854 13.5266 250.214 12.2412 244.974 11.5158C239.734 10.7932 235.885 11.0412 233.935 11.4692ZM255.035 19.1692C254.894 19.1866 254.769 19.2012 254.658 19.2158C251.709 19.5665 247.905 19.4585 243.95 18.9105C241.218 18.5345 227.635 16.3625 228.415 10.7092C229.202 5.05854 242.866 6.65319 245.595 7.03186C249.55 7.57853 253.239 8.50921 255.983 9.64787C257.369 10.2225 261.581 11.9732 261.129 15.2359C260.711 18.2572 256.793 18.9426 255.035 19.1692Z" fill="#AD0000"/>
<path d="M344.361 413.652C327.306 452.08 303.069 484.764 270.405 502.025H270.401C256.406 509.421 240.855 513.984 223.666 514.957L223.65 514.96C206.359 515.936 187.402 513.277 166.687 506.212C77.29 475.73 -27.6914 332.337 10.0899 224.53C32.8192 159.669 78.7633 136.276 111.763 127.93C111.769 127.934 111.767 127.93 111.771 127.929C133.611 122.404 149.779 123.476 149.779 123.476C150.183 122.46 150.61 121.437 151.062 120.405C163.049 93.0051 191.905 61.7744 232.057 49.7211C270.547 38.1691 312.329 40.4198 318.461 40.8345C318.699 40.8358 333.961 47.9478 328.685 76.5851C325.282 95.0891 317.694 109.45 309.891 108.373C274.518 106.729 255.129 116.076 255.129 116.076L255.115 116.082V116.088C285.095 124.276 314.502 141.177 338.405 168.208C392.134 228.981 376.07 342.18 344.361 413.652Z" fill="#EA2A21"/>
<path d="M328.682 76.5865C325.279 95.0905 317.691 109.452 309.889 108.375C323.183 103.316 332.981 53.4919 262.542 57.9812C192.106 62.4692 152.57 122.424 152.57 122.424C152.57 122.424 151.985 121.659 151.059 120.405C163.046 93.0052 191.902 61.7745 232.054 49.7212C270.545 38.1692 312.327 40.4198 318.458 40.8345C318.697 40.8372 333.959 47.9492 328.682 76.5865Z" fill="#FC3838"/>
<path d="M306.809 73.5356C308.751 59.5022 313.794 48.6062 318.074 49.1982C322.354 49.7916 324.249 61.6462 322.307 75.6809C320.365 89.7142 315.321 100.61 311.042 100.017C306.762 99.4249 304.866 87.5689 306.809 73.5356Z" fill="#D11313"/>
<path d="M311.327 97.9891C312.999 98.2211 318.125 90.8384 320.261 75.4197C321.171 68.8304 321.251 62.5544 320.485 57.7477C319.67 52.6531 318.234 51.3331 317.795 51.2731C317.373 51.2091 315.619 52.0851 313.449 56.7757C311.403 61.1904 309.777 67.2531 308.863 73.8424C306.729 89.2531 309.623 97.7531 311.327 97.9891ZM311.993 102.097C311.59 102.149 311.178 102.148 310.762 102.09V102.089C304.027 101.157 302.934 86.4984 304.766 73.2744C305.731 66.2904 307.483 59.8144 309.693 55.037C312.951 47.9984 316.21 46.8731 318.363 47.1731C320.519 47.4691 323.349 49.4344 324.571 57.0957C325.402 62.293 325.327 69.0037 324.359 75.9877C322.642 88.3917 318.105 101.313 311.993 102.097Z" fill="#AD0000"/>
<path d="M106.022 231.041C115.406 223.615 125.777 221.087 129.186 225.397C132.595 229.703 127.75 239.215 118.366 246.641C108.982 254.067 98.6099 256.594 95.2019 252.286C91.7926 247.978 96.6379 238.466 106.022 231.041Z" fill="#D11313"/>
<path d="M122.327 225.646C118.374 226.154 112.841 228.536 107.43 232.817C103.139 236.21 99.7325 240.132 97.8339 243.861C96.2632 246.946 95.9419 249.57 96.9805 250.881C98.0165 252.19 100.646 252.486 104.007 251.664C108.073 250.673 112.673 248.258 116.961 244.865C125.67 237.974 129.661 229.645 127.411 226.8C126.559 225.725 124.737 225.337 122.327 225.646ZM102.706 256.51C98.5552 257.042 95.3125 256.07 93.4285 253.69C91.1979 250.874 91.3285 246.652 93.7979 241.804C95.9872 237.508 99.8299 233.054 104.619 229.265C115.321 220.797 126.646 218.529 130.965 223.99C135.283 229.45 130.471 239.95 119.773 248.417C114.986 252.206 109.767 254.922 105.081 256.065C104.261 256.264 103.466 256.412 102.706 256.51Z" fill="#AD0000"/>
<path d="M221.807 199.2C222.454 193.744 232.613 190.465 244.495 191.876C256.379 193.285 265.487 198.849 264.839 204.304C264.193 209.76 254.035 213.039 242.153 211.629C230.27 210.22 221.161 204.655 221.807 199.2Z" fill="#D11313"/>
<path d="M242.438 209.374C253.465 210.682 262.183 207.632 262.611 204.033C263.041 200.433 255.275 195.428 244.249 194.12C238.818 193.474 233.634 193.83 229.654 195.113C226.358 196.177 224.271 197.801 224.077 199.46C223.881 201.12 225.527 203.186 228.482 204.993C232.05 207.174 237.006 208.73 242.438 209.374ZM252.951 213.905C249.625 214.333 245.882 214.345 241.902 213.873C235.838 213.153 230.233 211.372 226.117 208.857C221.477 206.021 219.153 202.496 219.575 198.926C219.999 195.357 223.082 192.473 228.261 190.801C232.846 189.321 238.715 188.902 244.781 189.621C258.329 191.229 267.93 197.654 267.109 204.568C266.53 209.45 260.953 212.88 252.951 213.905Z" fill="#AD0000"/>
<path d="M344.359 413.651C327.307 452.082 303.07 484.764 270.403 502.025C345.11 434.398 368.506 333.71 347.178 238.327C326.009 143.658 256.159 116.487 255.113 116.087C285.093 124.274 314.503 141.179 338.403 168.206C392.134 228.979 376.071 342.181 344.359 413.651Z" fill="#FC3838"/>
<path d="M223.647 514.96C206.358 515.937 187.401 513.277 166.685 506.213C77.2912 475.73 -27.6915 332.338 10.0898 224.53C32.8192 159.669 78.7645 136.274 111.765 127.929C105.273 130.862 22.9312 170.214 21.5285 282.834C20.0752 400.069 144.818 513.538 223.647 514.96Z" fill="#D11313"/>
<path d="M129.983 126.788C120.341 128.024 107.967 130.575 94.7473 135.756C67.698 146.353 31.4259 170.491 12.2233 225.28C-2.06206 266.044 3.66066 316.451 28.3407 367.212C59.5153 431.335 115.406 486.335 167.415 504.071C263.863 536.961 315.747 472.557 342.289 412.733C377.042 334.407 386.281 225.78 336.707 169.709C314.598 144.701 286.17 126.913 254.501 118.268C253.435 117.977 252.734 116.956 252.845 115.853C252.935 114.971 253.523 114.244 254.323 113.953C256.519 112.94 275.863 104.524 309.994 106.109C310.062 106.112 310.131 106.118 310.199 106.126C315.807 106.912 323.87 94.8385 326.439 76.2745C328.402 62.0865 325.269 49.5199 321.321 44.9026C320.626 44.0905 319.558 43.1185 318.418 43.0972C313.595 42.7772 271.155 40.3492 232.703 51.8932C191.81 64.1665 162.65 97.1078 151.887 124.309C151.525 125.224 150.613 125.803 149.633 125.736C149.497 125.729 141.789 125.273 129.983 126.788ZM232.338 516.44C211.714 519.086 189.525 516.399 165.954 508.359C112.877 490.259 55.9366 434.332 24.2687 369.193C-0.944682 317.337 -6.738 265.696 7.94866 223.783C27.75 167.281 65.2806 142.395 93.278 131.467C119.59 121.199 142.097 120.981 148.283 121.148C159.906 93.2305 189.803 60.0425 231.399 47.5559C269.805 36.0305 310.787 38.0532 318.61 38.5732C320.061 38.5985 322.411 39.2105 324.765 41.9598C330.338 48.4812 332.873 62.8478 330.927 76.8972C328.101 97.3305 318.993 111.792 309.69 110.631C286.714 109.577 270.521 113.275 262.301 115.845C292.169 125.3 318.951 142.788 340.101 166.709C364.811 194.656 377.114 236.244 375.686 286.98C374.507 328.817 363.843 375.323 346.431 414.571C328.763 454.392 305.854 483.168 278.341 500.097C264.05 508.892 248.686 514.341 232.338 516.44Z" fill="#AD0000"/>
<path d="M218.762 369.85C191.806 377.766 175.907 364 174.101 352.548C174.025 352.086 173.978 351.625 173.945 351.174C173.823 349.153 174.162 347.237 174.986 345.57C179.294 336.8 194.855 343.022 210.73 338.969C226.607 334.924 236.127 319.864 244.37 325.197C246.297 326.446 247.766 328.329 248.707 330.64C253.133 341.525 245.889 361.885 218.762 369.85Z" fill="#22213F"/>
<path d="M248.706 330.639L248.698 330.643C214.958 368.225 174.099 352.548 174.099 352.548L173.943 351.175C173.822 349.153 174.161 347.237 174.985 345.571C179.293 336.8 194.854 343.023 210.729 338.969C226.606 334.924 236.126 319.864 244.369 325.197C246.295 326.447 247.765 328.329 248.706 330.639Z" fill="white"/>
<path d="M219.611 146.06C219.163 146.117 218.695 146.042 218.266 145.814C183.514 127.429 150.018 125.754 149.683 125.738C148.435 125.684 147.465 124.626 147.521 123.377C147.575 122.126 148.637 121.154 149.882 121.213C151.286 121.274 184.689 122.925 220.383 141.809C221.491 142.393 221.911 143.765 221.327 144.87C220.969 145.549 220.317 145.968 219.611 146.06Z" fill="#AD0000"/>
<path d="M57.1806 140.48C45.534 141.974 37.9526 139.342 37.6006 139.216C36.422 138.794 35.8073 137.5 36.2273 136.321C36.6487 135.144 37.942 134.53 39.1166 134.948C39.2513 134.994 47.9073 137.926 60.6393 135.312C61.8873 135.064 63.062 135.849 63.3153 137.074C63.566 138.3 62.7753 139.498 61.55 139.749C60.0406 140.061 58.5806 140.298 57.1806 140.48Z" fill="#AD0000"/>
<path d="M222.122 125.797C221.162 125.921 220.191 125.413 219.771 124.485C219.258 123.345 219.762 122.004 220.901 121.488C237.333 114.05 254.387 113.825 255.105 113.817C256.354 113.805 257.378 114.812 257.387 116.062C257.399 117.313 256.397 118.337 255.145 118.348C254.975 118.349 238.299 118.586 222.77 125.614C222.558 125.709 222.339 125.77 222.122 125.797Z" fill="#AD0000"/>
<path d="M196.043 371.512C196.043 371.512 202.999 362.8 216.845 358.925C230.69 355.049 240.69 357.473 240.69 357.473C240.69 357.473 224.49 375.329 196.043 371.512Z" fill="#EA2A21"/>
<path d="M177.015 346.572C175.15 350.37 176.451 355.805 180.335 360.418C183.242 363.872 194.555 374.604 218.126 367.68C237.615 361.957 246.046 349.714 247.435 340.165C248.277 334.37 246.631 329.364 243.137 327.101C239.937 325.029 236.135 327.405 229.693 331.785C224.519 335.301 218.657 339.289 211.287 341.168C204.521 342.89 197.959 342.833 192.169 342.78C183.717 342.706 178.847 342.842 177.015 346.572ZM209.797 374.076C189.974 376.621 179.785 366.797 176.871 363.336C171.83 357.348 170.291 349.985 172.95 344.573C176.131 338.104 183.583 338.172 192.211 338.249C197.725 338.301 203.974 338.357 210.169 336.778C216.767 335.097 222.282 331.348 227.149 328.04C233.613 323.645 239.721 319.493 245.599 323.298C250.598 326.536 253.018 333.248 251.917 340.818C250.326 351.757 240.947 365.701 219.402 372.026C215.978 373.032 212.777 373.693 209.797 374.076Z" fill="#22213F"/>
<path d="M247.062 255.776C257.774 252.013 271.435 263.127 277.573 280.597C283.713 298.071 280.004 315.285 269.292 319.049C258.58 322.812 244.921 311.699 238.781 294.228C232.643 276.755 236.35 259.54 247.062 255.776Z" fill="white"/>
<path d="M250.985 270.127C257.623 267.845 266.025 274.771 269.75 285.598C273.475 296.426 271.111 307.055 264.474 309.339C257.834 311.623 249.434 304.697 245.709 293.869C241.985 283.041 244.346 272.411 250.985 270.127Z" fill="#22213F"/>
<path d="M254.883 282.304C254.371 284.373 252.035 285.57 249.666 284.984C247.298 284.396 245.795 282.241 246.309 280.174C246.823 278.106 249.159 276.906 251.526 277.496C253.894 278.082 255.397 280.237 254.883 282.304Z" fill="white"/>
<path d="M249.973 257.394C249.227 257.49 248.499 257.661 247.793 257.908C238.438 261.196 235.282 277.481 240.898 293.469C246.515 309.46 259.179 320.184 268.519 316.904C277.875 313.617 281.034 297.332 275.414 281.342C272.582 273.281 268.025 266.404 262.582 261.976C258.275 258.473 253.882 256.892 249.973 257.394ZM266.861 321.928C255.489 323.388 242.709 312.282 236.625 294.97C229.971 276.034 234.218 257.877 246.291 253.633C252.247 251.548 259.047 253.257 265.442 258.46C271.523 263.408 276.583 271.002 279.689 279.841C286.342 298.778 282.097 316.936 270.022 321.178C268.987 321.542 267.93 321.79 266.861 321.928Z" fill="#AD0000"/>
<path d="M391 75.9253C391 42.8298 417.863 16 451 16C484.137 16 511 42.8298 511 75.9253C511 109.021 484.137 135.851 451 135.851C444.295 135.851 437.845 134.751 431.825 132.725L402.963 145.814L393.736 150L403.385 112.383C395.62 102.283 391 89.6437 391 75.9253Z" fill="#E6ECFF"/>
<path d="M450.997 18.7576C419.415 18.7576 393.721 44.622 393.721 76.4142C393.721 89.2222 397.809 101.352 405.541 111.489C405.982 112.068 406.135 112.82 405.958 113.528L397.591 146.406L430.961 131.148C431.505 130.901 432.127 130.867 432.693 131.062C438.575 133.058 444.731 134.069 450.997 134.069C482.58 134.069 508.275 108.205 508.275 76.4124C508.275 44.6203 482.58 18.7576 450.997 18.7576ZM394.078 153C393.534 153 392.993 152.812 392.562 152.447C391.864 151.857 391.567 150.918 391.789 150.034L401.099 113.454C393.176 102.669 389 89.8886 389 76.4142C389 41.9974 416.813 14 450.999 14C485.187 14 513 41.9974 513 76.4142C513 110.828 485.187 138.827 450.999 138.827C444.539 138.827 438.175 137.831 432.077 135.863L395.055 152.788C394.744 152.931 394.409 153 394.078 153Z" fill="#8196C9"/>
<path d="M124.649 335.876C124.11 335.945 123.546 335.823 123.066 335.488C122.041 334.773 121.786 333.36 122.502 332.336C134.059 315.739 149.871 313.151 159.655 313.411C155.153 311.045 150.661 309.805 150.591 309.788C149.383 309.46 148.67 308.217 148.997 307.011C149.325 305.801 150.567 305.091 151.773 305.413C152.262 305.547 163.807 308.719 169.663 315.223C170.341 315.975 170.438 317.083 169.899 317.943C169.361 318.797 168.321 319.196 167.349 318.912C166.331 318.623 142.173 312.019 126.219 334.923C125.838 335.468 125.261 335.796 124.649 335.876Z" fill="#22213F"/>
<path d="M115.041 139.064C95.7327 139.846 56.65 164.809 45.778 188.522C36.0593 209.724 57.7526 214.748 77.078 190.456C96.402 166.162 142.526 137.949 115.041 139.064Z" fill="#FC3838"/>
<path d="M41.906 225.077C25.2913 226.265 12.9473 275.654 30.998 285.464C49.0486 295.276 62.706 223.593 41.906 225.077Z" fill="#FC3838"/>
<path d="M480.833 55.1732C473.946 48.2767 462.772 48.2767 455.884 55.1732L451.001 60.0595L446.118 55.1732C442.675 51.7233 438.158 50 433.644 50C429.129 50 424.614 51.7233 421.167 55.1732C414.278 62.068 414.278 73.2495 421.167 80.1443L426.049 85.0306L451.001 110L475.952 85.0306L480.833 80.1443C484.276 76.6961 486 72.177 486 67.6562C486 63.1388 484.276 58.6197 480.833 55.1732Z" fill="#EA2A21"/>
<path d="M433.807 52.685C429.765 52.685 425.968 54.2568 423.109 57.1117C417.212 63.0056 417.212 72.5934 423.109 78.4839L450.994 106.341L478.877 78.4839C481.736 75.6307 483.308 71.8354 483.308 67.797C483.308 63.7653 481.736 59.97 478.877 57.1117C476.021 54.2585 472.223 52.6867 468.182 52.6867C464.144 52.6867 460.347 54.2585 457.489 57.1117L452.653 61.9437C452.214 62.3809 451.619 62.6291 450.996 62.6291C450.374 62.6291 449.779 62.3809 449.338 61.942L444.505 57.11C441.643 54.2585 437.844 52.685 433.807 52.685ZM450.994 112C450.394 112 449.794 111.769 449.336 111.315L419.796 81.798C412.068 74.0791 412.068 61.5199 419.796 53.7993C423.538 50.0597 428.517 48 433.807 48C439.098 48 444.076 50.0597 447.821 53.7993L450.996 56.975L454.172 53.7993C457.915 50.0614 462.89 48.0017 468.184 48.0017C473.478 48.0017 478.453 50.0614 482.196 53.801C485.939 57.544 488 62.5143 488 67.7987C488 73.0881 485.939 78.0601 482.196 81.798L452.655 111.315C452.194 111.769 451.594 112 450.994 112Z" fill="#AD0000"/>
<path d="M401.411 315.442C401.365 315.432 401.338 315.426 401.33 315.424C400.527 315.221 400.039 314.408 400.24 313.605C400.442 312.802 401.24 312.36 402.058 312.513C402.388 312.569 438.091 321.079 460.41 289.66C460.891 288.985 461.826 288.824 462.502 289.306C463.178 289.785 463.336 290.722 462.855 291.397C439.865 323.763 403.389 315.9 401.411 315.442Z" fill="#ACBFE5"/>
<path d="M434.993 328.245C434.393 328.106 433.917 327.603 433.842 326.956C433.747 326.135 434.337 325.39 435.159 325.293C435.308 325.277 450.129 323.408 460.004 310.823C460.516 310.172 461.459 310.056 462.109 310.568C462.762 311.08 462.875 312.022 462.364 312.674C451.693 326.274 436.159 328.199 435.503 328.274C435.328 328.295 435.156 328.283 434.993 328.245Z" fill="#ACBFE5"/>
</svg>
