<svg width="467" height="396" viewBox="0 0 467 396" fill="none" xmlns="http://www.w3.org/2000/svg">
<path d="M171.547 276.536C175.442 293.969 181.191 313.442 185.642 331.061C190.278 348.309 195.1 365.742 200.108 382.989C202.519 392.262 217.17 389.48 216.243 380.022C211.792 345.527 207.712 307.879 204.188 273.198C202.333 251.87 169.136 255.394 171.547 276.536Z" fill="#ED7E97"/>
<path d="M274.476 380.578C274.291 389.665 288.2 391.706 290.611 382.804C295.618 365.556 300.44 348.309 305.077 330.876C309.528 314.185 314.535 295.453 318.801 278.762C324.179 256.322 289.128 250.016 286.531 273.013C283.007 308.249 278.742 345.712 274.476 380.578Z" fill="#ED7E97"/>
<path d="M283.749 299.718L282.08 315.111C301.368 321.602 309.342 314.369 309.342 314.369L311.938 304.911C314.164 296.194 316.574 287.663 318.8 278.947C321.026 270.23 315.833 261.143 306.931 258.918C298.214 256.692 289.127 261.885 286.902 270.787C286.717 271.529 286.531 272.271 286.531 273.198V273.383L283.749 299.718Z" fill="#E26988"/>
<path d="M171.547 276.536C171.547 277.278 171.732 278.205 171.918 278.947C174.143 287.664 176.369 296.38 178.78 304.911C178.78 304.911 191.02 317.893 208.639 312.7L206.784 299.718L204.002 273.197C203.075 264.11 194.915 257.619 186.013 258.546C177.11 259.474 170.619 267.448 171.547 276.536Z" fill="#E26988"/>
<path d="M165.983 386.327C169.878 395.6 214.573 399.68 216.242 381.876C216.242 381.691 216.242 381.32 216.242 381.134C216.242 380.949 216.242 380.763 216.242 380.392V380.021C216.242 379.465 216.057 378.908 216.057 378.352C216.057 378.167 216.057 377.981 215.872 377.796L206.414 374.829L197.327 372.047H197.142C194.175 372.232 167.654 373.902 165.8 384.473C165.612 385.215 165.798 385.771 165.983 386.327Z" fill="#ED7E97"/>
<path d="M165.983 386.327C165.983 386.327 177.481 378.909 198.438 376.683C198.994 376.683 199.551 376.498 200.107 376.498C203.445 376.127 205.485 372.603 204.187 369.636L184.157 324.57L185.826 331.061C189.535 344.785 193.244 358.509 197.139 372.233C194.172 372.418 167.651 374.088 165.797 384.659C165.612 385.215 165.798 385.771 165.983 386.327Z" fill="#F490AA"/>
<path d="M274.476 380.578C274.476 381.505 274.661 382.433 274.847 383.36C279.113 400.608 326.775 394.673 325.106 384.473C323.251 374.087 296.731 372.233 293.764 372.047C293.579 372.047 293.579 372.047 293.579 372.047L286.902 374.087L275.033 377.611C275.033 377.796 275.033 377.982 274.848 378.353C274.663 378.909 274.663 379.466 274.663 379.837V380.022C274.476 380.207 274.476 380.393 274.476 380.578Z" fill="#ED7E97"/>
<path d="M286.531 374.087C285.789 375.942 287.087 377.796 289.127 377.796C290.054 377.796 290.982 377.796 291.909 377.796C312.68 378.167 324.921 384.287 324.921 384.287C323.066 373.901 296.546 372.047 293.579 371.861C297.474 358.137 301.183 344.413 304.892 330.689L306.561 324.198L286.531 374.087Z" fill="#F490AA"/>
<path d="M274.847 383.36C279.113 400.608 326.775 394.673 325.106 384.473C324.921 384.473 298.029 393.004 274.847 383.36Z" fill="#E26988"/>
<path d="M165.983 386.327C169.878 395.6 214.573 399.68 216.242 381.691C216.057 381.691 215.871 381.691 215.871 381.691C215.871 381.691 197.325 393.931 165.983 386.327Z" fill="#E26988"/>
<path d="M218.089 379.697C218.087 379.641 218.094 379.586 218.083 379.529C218.08 379.508 218.078 379.487 218.075 379.466C218.038 379.025 217.981 378.578 217.902 378.126C215.543 359.879 213.047 341.978 211.42 326.608L208.453 300.087L205.671 273.381C204.558 263.366 195.656 256.133 185.827 257.246C175.812 258.359 168.579 267.261 169.692 277.09C169.877 277.831 170.063 278.759 170.248 279.686C172.474 288.588 174.885 297.119 177.11 305.836L183.972 331.8C186.816 342.468 190.959 356.349 195.055 370.712C187.536 371.288 165.911 373.747 164.128 384.286C163.943 385.955 164.314 388.366 168.023 390.777C172.845 393.93 182.304 395.97 191.762 395.97C199.551 395.97 207.155 394.486 212.532 390.777C216.471 388.101 218.393 384.216 218.089 379.697ZM210.492 388.182C200.849 394.858 177.852 392.818 169.877 387.811C168.579 387.069 167.281 385.956 167.466 384.658C168.949 376.683 189.535 374.087 197.51 373.716C198.101 373.716 198.686 373.241 198.902 372.581C199.001 372.454 199.041 372.284 198.994 372.047C198.994 371.833 198.926 371.621 198.816 371.425C194.599 356.616 190.051 342.031 187.125 330.874L180.263 304.91C177.852 296.379 175.626 287.663 173.401 278.946C173.215 278.204 173.03 277.462 173.03 276.72C172.103 268.745 178.038 261.512 186.198 260.585C194.358 259.658 201.591 265.593 202.518 273.753L205.3 300.274L208.267 326.795C209.937 342.373 211.976 359.251 214.387 377.982C215.314 382.433 214.016 385.586 210.492 388.182Z" fill="#BF4B6F"/>
<path d="M326.775 384.473C324.836 373.967 303.464 371.491 295.914 370.905C300.004 356.468 303.891 342.317 306.746 331.431L313.608 305.467C316.019 296.936 318.244 288.22 320.47 279.503C322.881 269.859 317.132 259.844 307.488 257.433C302.851 256.135 297.844 256.877 293.764 259.288C289.498 261.885 286.531 265.78 285.418 270.416C285.047 271.343 285.047 272.085 284.862 273.012L282.08 299.718L279.113 326.239C277.443 342.003 275.435 359.437 273.024 378.168H273.029C272.059 383.401 273.943 387.776 278.37 390.964C283.378 394.487 291.167 395.971 298.956 395.971C308.414 395.971 317.872 393.746 322.879 390.964C326.59 388.553 327.146 386.142 326.775 384.473ZM321.026 387.997C313.237 393.19 290.055 395.23 280.411 388.368C276.887 385.772 275.589 382.434 276.516 378.168C278.927 359.436 280.782 342.374 282.45 326.609L285.603 300.274L288.385 273.568V273.383C288.385 272.827 288.571 272.085 288.756 271.343C289.869 267.449 292.28 264.296 295.618 262.256C298.957 260.216 302.851 259.66 306.746 260.587C314.535 262.627 319.357 270.601 317.317 278.576C315.091 287.292 312.681 295.823 310.455 304.54L303.593 330.504C300.682 341.604 296.343 356.632 292.151 371.383C292.001 371.627 291.909 371.917 291.909 372.233C291.886 372.351 291.878 372.459 291.883 372.56C291.908 373.328 292.579 373.902 293.393 373.902C301.182 374.087 321.953 376.869 323.437 384.844C323.622 386.142 322.139 387.255 321.026 387.997Z" fill="#BF4B6F"/>
<path d="M127.857 249.436C162.723 237.752 176.076 213.086 180.898 194.355C184.236 181.744 184.236 170.06 183.865 163.198C183.68 159.489 183.309 157.078 183.123 156.892L180.527 157.448L160.127 160.972C160.127 161.157 160.127 161.343 160.312 161.714C160.683 164.867 161.796 176.365 158.272 188.976C158.087 189.532 157.901 190.089 157.716 190.645C156.974 192.871 156.232 195.096 155.305 197.136C148.999 211.416 137.316 221.431 120.439 227.18C99.6684 234.042 63.5034 229.22 45.6994 225.696C43.4744 225.325 41.6193 224.769 39.9503 224.398C33.6443 222.914 27.3394 226.809 25.8554 233.115C24.3714 239.421 28.2664 245.726 34.5724 247.21C34.9434 247.21 36.4274 247.581 38.6524 248.137C52.7464 251.105 98.3693 259.265 127.857 249.436Z" fill="#ED7E97"/>
<path d="M155.119 197.322C148.813 211.602 137.13 221.617 120.253 227.366C99.4822 234.228 63.3172 229.406 45.5132 225.882C46.6262 226.253 77.5972 236.453 101.892 235.897C126.559 235.341 153.265 221.802 155.119 197.322Z" fill="#F490AA"/>
<path d="M127.857 249.436C162.723 237.752 176.076 213.086 180.898 194.355C184.236 181.744 184.236 170.06 183.865 163.198C183.68 159.489 183.309 157.078 183.123 156.892L180.527 157.448L160.312 161.899C160.683 165.052 161.796 176.55 158.272 189.161C158.087 189.717 157.901 190.274 157.716 190.83C157.716 190.83 169.4 199.547 163.651 216.052C157.902 232.743 129.898 257.966 38.8379 248.322C52.7459 251.105 98.3689 259.265 127.857 249.436Z" fill="#E26988"/>
<path d="M37.539 232.188C37.168 232.559 35.87 233.672 33.459 234.784C32.717 235.155 31.975 235.526 31.048 235.711C28.266 236.638 24.742 237.195 20.106 237.195C16.211 237.195 11.575 236.453 6.01102 234.969C2.85802 234.042 1.00401 230.889 1.93101 227.736C2.67301 225.14 4.898 223.47 7.309 223.47C7.865 223.47 8.422 223.47 8.978 223.655C19.549 226.622 25.669 225.324 28.08 224.397C28.822 224.026 29.378 223.841 29.564 223.655L29.379 223.84L37.539 232.188Z" fill="#ED7E97"/>
<path d="M40.8769 229.221C40.8769 231.817 39.2079 234.043 36.7969 234.785C36.2409 234.97 35.6839 235.156 34.9419 235.156C34.3859 235.156 33.8289 235.156 33.4579 234.971C31.0469 234.229 29.1919 232.004 29.1919 229.222C29.1919 227.553 28.8209 225.884 28.0789 224.4C27.5229 223.287 26.9659 222.36 26.4099 221.433C24.7409 219.022 22.8859 217.538 22.8859 217.538C20.2899 215.498 19.9189 211.974 21.7729 209.378C23.8129 206.782 27.3369 206.411 29.9329 208.265C30.4909 208.635 41.0619 216.795 40.8769 229.221Z" fill="#ED7E97"/>
<path d="M34.9422 247.581C30.1202 249.065 26.2252 249.065 22.8872 247.396C19.5492 245.727 18.0652 242.574 17.5092 240.349C16.9532 237.196 18.9932 234.043 22.1452 233.487C24.9272 232.931 27.5232 234.414 28.6362 237.011C29.3782 237.011 30.6762 236.826 33.2722 235.713C36.2392 234.415 39.7632 235.713 41.0612 238.68C42.3592 241.647 41.0612 245.171 38.0942 246.469C36.9822 246.839 35.8702 247.21 34.9422 247.581Z" fill="#ED7E97"/>
<path d="M28.6371 250.178C26.2261 250.178 24.0011 249.622 22.1461 248.694C18.4371 246.654 16.3971 243.13 16.0261 240.534C15.8411 239.236 15.8411 237.752 16.3971 236.639C16.7681 235.712 17.6951 235.341 18.4371 235.712C19.3641 236.083 19.7351 237.01 19.3641 237.752C19.1791 238.494 18.9931 239.236 19.1791 239.978C19.5501 241.833 20.8481 244.429 23.6301 245.727C26.4121 247.211 29.7611 246.899 34.0271 245.6C34.9541 245.229 36.2421 246.097 36.4271 247.025C36.7981 247.952 36.0451 248.487 35.1171 248.672C35.3231 249.129 30.8621 250.178 28.6371 250.178Z" fill="#BF4B6F"/>
<path d="M20.291 237.196H19.92C16.025 237.196 11.389 236.454 5.82499 234.97C2.67199 234.043 0.817971 230.89 1.74497 227.737C2.48697 225.141 4.71202 223.471 7.12302 223.471C6.75302 224.213 1.74499 232.559 20.291 237.196Z" fill="#F490AA"/>
<path d="M30.1204 208.264C28.8224 208.449 23.4444 210.304 26.5964 221.432C24.9274 219.021 23.0724 217.537 23.0724 217.537C20.4764 215.497 20.1054 211.973 21.9594 209.377C23.8154 206.78 27.5244 206.409 30.1204 208.264Z" fill="#F490AA"/>
<path d="M20.8472 238.908C16.0252 238.908 10.8321 238.166 5.45415 236.497C3.59915 235.941 1.9301 234.642 1.0031 232.973C0.0761001 231.304 -0.294843 229.264 0.261157 227.224C1.37416 223.329 5.45411 220.918 9.53411 222.031C19.7341 224.813 25.2982 223.7 27.7092 222.773C28.6362 222.402 29.5641 222.773 29.7491 223.7C30.1201 224.627 29.7491 225.698 28.8221 225.883C26.0401 226.996 19.7351 228.336 8.6071 225.184C6.3821 224.628 3.97111 225.926 3.41411 228.151C3.04311 229.264 3.22914 230.377 3.78514 231.304C4.34114 232.231 5.26915 232.973 6.38115 233.344C11.9452 234.828 16.9521 235.569 21.5891 235.569C22.5161 235.569 23.2581 236.311 23.2581 237.238C23.2581 238.165 22.5161 238.907 21.5891 238.907C21.4041 238.908 21.0332 238.908 20.8472 238.908Z" fill="#BF4B6F"/>
<path d="M40.5059 226.068C39.7639 226.068 38.5049 225.611 38.3199 224.869C36.4649 215.782 29.3788 209.933 29.1928 209.562C27.3378 208.078 24.7418 208.449 23.2578 210.304C21.7738 212.159 22.1449 214.755 23.9999 216.239C23.9999 216.239 27.7089 219.206 29.7489 223.657C30.1199 224.399 29.7489 225.512 28.8219 225.883C28.0799 226.254 26.9669 225.883 26.5969 224.956C24.9279 221.432 21.9609 218.836 21.7749 218.836C20.2909 217.723 19.1789 215.869 18.9929 213.829C18.8079 211.789 19.1778 209.934 20.4768 208.265C23.0728 204.927 27.7099 204.37 31.0479 206.967C31.4189 207.152 39.3379 213.715 41.5629 223.915C41.7479 224.842 41.6189 225.698 40.6919 225.884C40.6919 226.068 40.5059 226.068 40.5059 226.068Z" fill="#BF4B6F"/>
<path d="M92.6199 255.741C64.0589 255.741 35.8699 249.25 34.2009 248.879C33.2739 248.694 32.7169 247.766 32.9029 246.839C33.0879 245.912 34.0159 245.355 34.9429 245.541C37.3539 246.097 93.3619 259.079 127.301 247.767C161.425 236.269 174.407 212.159 179.415 193.799C182.568 181.559 182.753 170.431 182.197 163.198C182.012 161.343 181.826 159.674 181.826 158.747L161.982 162.271C162.353 166.351 163.095 177.293 159.757 189.533C154.379 208.821 141.397 221.988 120.996 228.85C97.4429 236.825 54.2309 229.592 39.5799 226.068C38.6529 225.883 38.0959 224.955 38.2819 224.028C38.4669 223.101 39.3949 222.544 40.3219 222.73C54.7879 226.068 97.0719 233.116 119.884 225.512C139.172 219.021 151.412 206.595 156.605 188.42C160.5 174.511 158.645 162.085 158.46 160.972C158.275 160.045 159.016 159.303 159.758 159.117H159.943L182.94 155.408C183.311 155.408 183.867 155.408 184.238 155.593C184.609 155.778 184.794 156.149 184.98 156.706C184.98 156.891 185.351 159.302 185.722 163.197C186.278 170.615 186.093 182.114 182.755 194.91C177.748 214.012 164.209 239.235 128.601 251.104C117.842 254.629 105.046 255.741 92.6199 255.741Z" fill="#BF4B6F"/>
<path d="M57.6753 208.658C57.6753 236.477 80.3012 259.103 108.12 259.103C108.676 259.103 109.418 259.103 109.975 259.103C115.91 280.245 135.383 295.824 158.565 295.824C167.838 295.824 176.554 293.413 183.973 288.962C193.246 301.573 208.083 309.733 224.774 309.733C238.127 309.733 250.182 304.54 259.084 296.195C268.171 304.541 280.226 309.733 293.394 309.733C309.158 309.733 323.253 302.5 332.526 291.187C339.017 294.154 346.064 295.823 353.668 295.823C373.697 295.823 390.945 284.139 399.105 267.448C399.661 266.15 400.403 264.852 400.774 263.368C402.072 263.553 403.556 263.924 404.854 264.11C406.709 264.295 408.749 264.481 410.789 264.481C430.818 264.481 448.066 252.797 456.226 235.92C459.379 229.243 461.233 221.825 461.233 213.85C461.233 204.763 458.822 196.417 454.742 188.999C461.419 180.468 465.313 169.711 465.313 158.027C465.313 134.845 449.549 115.186 428.221 109.251C429.519 104.8 430.076 100.164 430.076 95.342C430.076 67.523 407.45 44.897 379.631 44.897C372.584 44.897 365.722 46.381 359.602 48.977C355.707 24.867 334.936 6.32202 309.714 6.32202C293.208 6.32202 278.557 14.297 269.284 26.537C268.913 26.537 268.542 26.537 268.171 26.537C259.454 11.515 243.134 1.5 224.588 1.5C198.253 1.5 176.554 21.715 174.329 47.494C169.322 45.825 163.943 44.898 158.38 44.898C130.561 44.898 107.935 67.524 107.935 95.343C107.935 95.714 107.935 96.085 107.935 96.641C104.04 97.568 100.331 98.866 96.9933 100.536C80.1163 108.696 68.6183 125.944 68.6183 145.973C68.6183 154.875 70.8433 163.221 74.9243 170.454C64.3523 179.727 57.6753 193.451 57.6753 208.658Z" fill="#FC9DB8"/>
<path d="M81.043 185.29C81.043 213.109 103.669 235.735 131.488 235.735C132.044 235.735 132.786 235.735 133.343 235.735C139.278 256.877 158.751 272.456 181.933 272.456C191.206 272.456 199.922 270.045 207.341 265.594C216.614 278.205 231.451 286.365 248.142 286.365C261.495 286.365 273.55 281.172 282.452 272.827C291.539 281.173 303.594 286.365 316.762 286.365C332.526 286.365 346.621 279.132 355.894 267.819C362.385 270.786 369.432 272.455 377.036 272.455C385.011 272.455 392.429 270.6 399.106 267.448C401.146 266.521 398.919 264.48 400.774 263.368C409.491 257.619 420.434 250.015 424.143 240.186C427.667 240.928 431.561 241.299 435.271 241.113C442.689 240.928 449.922 239.073 456.228 236.106C459.381 229.429 461.235 222.011 461.235 214.036C461.235 204.949 458.824 196.603 454.744 189.185C461.421 180.654 465.315 169.897 465.315 158.213C465.315 135.031 449.551 115.372 428.223 109.437C429.521 104.986 430.078 100.35 430.078 95.5281C430.078 67.7091 407.452 45.0831 379.633 45.0831C372.586 45.0831 365.724 46.5671 359.604 49.1631C355.709 25.0531 334.938 6.50806 309.716 6.50806C293.21 6.50806 278.559 14.4831 269.286 26.7231C268.915 26.7231 268.544 26.7231 268.173 26.7231C259.456 11.7011 243.136 1.68604 224.59 1.68604C198.255 1.68604 176.556 21.9011 174.331 47.6801C169.324 46.0111 163.945 45.084 158.382 45.084C130.563 45.084 107.937 67.7101 107.937 95.5291C107.937 95.9001 107.937 96.2711 107.937 96.8271C104.042 97.7541 100.333 99.052 96.9949 100.722C93.8419 107.399 91.988 114.817 91.988 122.792C91.988 131.694 94.2129 140.04 98.2939 147.273C87.7199 156.359 81.043 170.083 81.043 185.29Z" fill="#FFA6BD"/>
<path d="M108.12 95.529C124.997 41.004 178.223 56.212 178.223 56.212C178.223 56.212 183.972 27.28 215.871 18.564C247.584 10.033 267.614 37.666 267.614 37.666C267.614 37.666 284.305 19.677 312.124 22.644C339.943 25.611 351.07 61.59 351.07 61.59C351.07 61.59 374.623 53.43 401.329 67.339C427.85 81.248 421.544 119.082 421.544 119.082C474.771 146.901 455.483 188.443 455.297 189C461.974 180.469 465.868 169.712 465.868 158.028C465.868 134.846 450.104 115.187 428.776 109.252C430.074 104.801 430.631 100.165 430.631 95.343C430.631 67.524 408.005 44.898 380.186 44.898C373.139 44.898 366.277 46.382 360.157 48.978C356.262 24.868 335.491 6.323 310.269 6.323C293.763 6.323 279.112 14.298 269.839 26.538C269.468 26.538 269.097 26.538 268.726 26.538C260.009 11.516 243.689 1.50098 225.143 1.50098C198.808 1.50098 177.109 21.716 174.884 47.495C169.877 45.826 164.498 44.899 158.935 44.899C130.746 44.898 108.12 67.524 108.12 95.529Z" fill="#FFB8CC"/>
<path d="M293.394 311.233C280.846 311.233 268.72 306.622 259.093 298.217C249.64 306.621 237.508 311.233 224.774 311.233C208.76 311.233 193.461 303.667 183.577 290.926C176.122 295.115 167.505 297.323 158.565 297.323C135.738 297.323 115.46 282.28 108.851 260.602H108.12C79.4772 260.602 56.1753 237.299 56.1753 208.657C56.1753 193.967 62.3053 179.995 73.0373 170.131C69.1613 162.843 67.1183 154.518 67.1183 145.973C67.1183 125.828 78.3153 107.9 96.3403 99.185C99.3753 97.666 102.771 96.415 106.435 95.468V95.343C106.435 66.7 129.738 43.398 158.38 43.398C163.339 43.398 168.257 44.109 173.028 45.514C176.192 19.846 198.485 0 224.588 0C242.311 0 258.874 9.11102 268.334 23.921C278.181 12.09 293.828 4.82098 309.714 4.82098C334.745 4.82098 355.92 22.404 360.753 46.896C366.755 44.603 373.242 43.396 379.631 43.396C408.274 43.396 431.576 66.698 431.576 95.341C431.576 100 431.078 104.231 430.056 108.226C451.774 114.946 466.813 135.212 466.813 158.026C466.813 169.456 463.258 180.192 456.523 189.14C460.644 196.945 462.733 205.253 462.733 213.849C462.733 221.679 461.001 229.32 457.583 236.56C448.807 254.711 430.879 265.98 410.789 265.98C408.666 265.98 406.536 265.785 404.705 265.601C403.967 265.497 403.243 265.353 402.52 265.208C402.281 265.16 402.041 265.112 401.805 265.066C401.553 265.728 401.263 266.347 400.978 266.954C400.807 267.317 400.638 267.677 400.484 268.037C391.776 285.853 373.412 297.321 353.668 297.321C346.53 297.321 339.566 295.873 332.95 293.015C323.021 304.608 308.671 311.233 293.394 311.233ZM259.084 294.695C259.447 294.695 259.812 294.827 260.099 295.091C269.327 303.566 281.152 308.234 293.395 308.234C308.151 308.234 321.991 301.674 331.367 290.237C331.799 289.711 332.53 289.542 333.151 289.824C339.683 292.81 346.587 294.324 353.669 294.324C372.275 294.324 389.582 283.516 397.759 266.79C397.895 266.468 398.078 266.077 398.264 265.682C398.69 264.776 399.092 263.919 399.321 263.005C399.508 262.261 400.227 261.78 400.988 261.884C401.664 261.981 402.386 262.125 403.11 262.27C403.778 262.404 404.446 262.538 405.068 262.626C406.764 262.795 408.806 262.982 410.791 262.982C429.72 262.982 446.613 252.363 454.878 235.268C458.099 228.445 459.735 221.235 459.735 213.851C459.735 205.448 457.614 197.33 453.429 189.722C453.14 189.196 453.192 188.548 453.562 188.075C460.27 179.506 463.815 169.116 463.815 158.028C463.815 136.058 449.014 116.595 427.821 110.697C427.435 110.589 427.108 110.331 426.913 109.981C426.718 109.63 426.671 109.217 426.783 108.832C427.991 104.691 428.578 100.278 428.578 95.343C428.578 68.355 406.621 46.398 379.633 46.398C373.022 46.398 366.299 47.768 360.191 50.359C359.767 50.539 359.285 50.514 358.879 50.291C358.476 50.068 358.197 49.672 358.124 49.217C354.248 25.231 333.89 7.82202 309.716 7.82202C293.998 7.82202 278.538 15.341 269.368 27.443C269.065 27.843 268.581 28.067 268.081 28.034C267.58 28.003 267.127 27.724 266.875 27.29C258.182 12.307 241.979 3 224.59 3C199.405 3 177.985 22.601 175.825 47.623C175.785 48.081 175.538 48.495 175.154 48.748C174.77 49.001 174.292 49.062 173.856 48.917C168.841 47.246 163.634 46.398 158.381 46.398C131.392 46.398 109.436 68.355 109.436 95.343V96.641C109.436 97.336 108.959 97.939 108.283 98.1C104.401 99.023 100.829 100.294 97.6653 101.877C80.6663 110.096 70.1193 126.988 70.1193 145.973C70.1193 154.419 72.2333 162.63 76.2313 169.716C76.5803 170.334 76.4482 171.112 75.9142 171.581C65.2772 180.912 59.1763 194.426 59.1763 208.657C59.1763 235.645 81.1333 257.602 108.121 257.602H109.976C110.648 257.602 111.239 258.049 111.42 258.697C117.309 279.673 136.696 294.323 158.566 294.323C167.433 294.323 175.952 292.024 183.202 287.676C183.865 287.279 184.723 287.449 185.182 288.073C194.464 300.696 209.265 308.232 224.775 308.232C237.205 308.232 249.025 303.568 258.058 295.099C258.346 294.831 258.715 294.695 259.084 294.695Z" fill="#BF4B6F"/>
<path d="M245.174 284.882C244.993 284.843 244.618 284.882 244.432 284.697C225.701 274.497 230.337 258.176 232.192 253.54C219.21 243.34 212.533 232.027 212.162 220.157C211.606 204.208 222.548 192.153 226.257 188.444C207.155 166.745 226.999 140.967 227.184 140.781C227.74 140.039 228.853 140.039 229.41 140.596C230.152 141.152 230.152 142.265 229.595 142.821C228.853 143.748 210.493 167.672 229.41 187.516C229.781 187.887 229.966 188.258 229.781 188.814C229.781 189.185 229.596 189.741 229.225 189.927C229.04 190.112 214.574 202.909 214.945 220.157C215.316 231.47 221.992 242.041 234.604 251.87C235.16 252.426 235.346 253.168 234.975 253.91C234.604 254.652 226.258 271.529 245.361 281.914C248.309 283.341 246.522 285.17 245.174 284.882Z" fill="#ED7E97"/>
<path d="M142.986 135.402C134.455 155.431 141.131 177.501 157.823 184.548C174.515 191.595 194.915 181.21 203.446 161.18C211.977 141.15 205.301 119.081 188.609 112.034C172.103 104.987 151.517 115.373 142.986 135.402Z" fill="white"/>
<path d="M168.765 188.443C164.87 188.443 160.976 187.701 157.081 186.032C139.648 178.614 132.601 155.617 141.503 134.66C150.405 113.889 171.918 102.947 189.351 110.365C206.784 117.783 213.831 140.78 204.929 161.737C198.067 178.243 183.231 188.443 168.765 188.443ZM144.655 136.144C136.495 155.246 142.8 176.388 158.564 183.065C174.328 189.742 193.987 179.727 202.147 160.625C210.307 141.523 204.002 120.381 188.238 113.704C172.289 106.842 152.815 116.856 144.655 136.144Z" fill="#BF4B6F"/>
<path d="M185.354 155.724C187.539 142.275 179.884 129.84 168.254 127.951C156.625 126.061 145.426 135.432 143.24 148.881C141.055 162.33 148.711 174.764 160.34 176.654C171.969 178.544 183.168 169.173 185.354 155.724Z" fill="#22213F"/>
<path d="M178.965 139.668C180.263 142.821 178.223 146.53 174.699 148.014C170.99 149.498 167.095 148.014 165.797 144.861C164.499 141.708 166.539 137.999 170.063 136.515C173.772 135.031 177.852 136.515 178.965 139.668Z" fill="white"/>
<path d="M219.395 69.9349C208.638 73.6439 198.438 72.7169 196.769 67.8949C195.1 62.8879 202.333 55.8398 213.089 52.1308C223.846 48.4218 234.046 49.3489 235.715 54.1709C237.384 58.9929 230.152 66.0409 219.395 69.9349Z" fill="#ED7E97"/>
<path d="M206.784 73.8299C206.042 73.8299 205.115 73.8299 204.373 73.6449C199.366 73.2739 196.027 71.2338 195.1 68.2668C193.987 65.2998 195.471 61.5899 198.995 58.2519C202.333 55.0989 206.97 52.3169 212.533 50.4629C217.911 48.6079 223.475 47.6808 227.926 48.2378C232.933 48.6088 236.272 50.6488 237.199 53.6158C238.312 56.5828 236.828 60.2928 233.304 63.6308C229.966 66.7838 225.329 69.5658 219.766 71.4198C215.315 73.0878 210.864 73.8299 206.784 73.8299ZM225.515 51.2038C221.806 51.2038 217.726 51.9459 213.646 53.4289C208.639 55.0979 204.188 57.6949 201.406 60.4759C198.81 62.8869 197.697 65.2979 198.253 67.1529C198.809 68.8219 201.22 70.1198 204.744 70.3058C208.824 70.6768 213.831 69.9348 218.839 68.0808C223.846 66.4118 228.297 63.8148 231.079 61.0338C233.675 58.6228 234.788 56.2118 234.232 54.3568C233.676 52.6878 231.265 51.3898 227.741 51.2038C226.999 51.2038 226.257 51.2038 225.515 51.2038Z" fill="#BF4B6F"/>
<path d="M270.767 97.754C260.196 93.303 253.334 85.699 255.374 80.877C257.414 76.055 267.614 75.684 278.185 80.135C288.756 84.586 295.618 92.19 293.578 97.012C291.538 101.834 281.338 102.205 270.767 97.754Z" fill="#ED7E97"/>
<path d="M284.676 102.576C280.41 102.576 275.403 101.463 270.21 99.423C264.832 97.198 260.381 94.0451 257.228 90.7061C253.89 86.9971 252.777 83.2881 253.89 80.3201C255.188 77.3531 258.526 75.6841 263.534 75.4981C268.17 75.3131 273.549 76.4251 278.742 78.8361C284.12 81.0611 288.571 84.2141 291.724 87.5531C295.062 91.2621 296.175 94.9711 295.062 97.9391C293.764 100.907 289.869 102.576 284.676 102.576ZM271.509 96.2701C281.895 100.721 290.611 99.7941 292.095 96.4551C292.837 94.7861 291.91 92.1891 289.499 89.5931C286.717 86.6261 282.452 83.8441 277.63 81.8041C272.808 79.7641 267.801 78.6511 263.721 78.8371C260.197 79.0221 257.601 79.9501 257.044 81.6191C256.302 83.2881 257.229 85.8851 259.64 88.4811C262.421 91.4481 266.501 94.2301 271.509 96.2701Z" fill="#BF4B6F"/>
<path d="M328.259 51.2039C327.703 51.2039 327.146 51.0189 326.961 50.4619C326.59 49.7199 315.463 34.1419 296.546 42.1159C295.619 42.4869 294.691 42.1159 294.32 41.1889C293.949 40.4469 294.32 39.3339 295.247 38.9639C316.575 29.8769 329.371 48.2369 329.557 48.4219C330.113 49.1639 329.928 50.2769 329.186 50.6469C329.001 51.2039 328.63 51.2039 328.259 51.2039Z" fill="#ED7E97"/>
<path d="M311.939 260.957C311.197 260.957 310.826 260.957 310.826 260.957C309.899 260.772 309.342 260.03 309.342 259.102C309.527 258.175 310.269 257.618 311.197 257.618C311.753 257.618 323.808 258.731 327.703 246.305C327.888 245.378 328.816 245.007 329.743 245.192C330.67 245.377 331.041 246.305 330.856 247.232C326.775 259.845 315.648 260.957 311.939 260.957Z" fill="#ED7E97"/>
<path d="M196.584 277.463C186.384 277.463 181.006 268.932 180.82 268.746C180.264 268.004 180.635 266.891 181.376 266.52C182.118 265.964 183.231 266.335 183.601 267.076C183.972 267.447 190.463 277.647 202.703 273.011C203.63 272.64 204.558 273.196 204.743 273.938C205.114 274.865 204.558 275.793 203.816 275.978C201.22 277.092 198.809 277.463 196.584 277.463Z" fill="#ED7E97"/>
<path d="M368.689 206.618C367.947 206.618 367.391 206.247 367.205 205.505C366.834 204.578 367.39 203.65 368.132 203.465C368.688 203.28 380.001 198.829 377.776 185.846C377.591 184.919 378.147 184.177 379.074 183.991C380.001 183.806 380.743 184.362 380.929 185.289C383.525 200.867 369.245 206.431 369.06 206.431C369.06 206.618 368.874 206.618 368.689 206.618Z" fill="#ED7E97"/>
<path d="M146.324 218.302C130.375 217.375 128.149 202.353 128.149 202.167C127.964 201.24 128.705 200.498 129.633 200.312C130.56 200.127 131.302 200.868 131.488 201.796C131.488 202.352 133.528 214.407 146.51 215.149C147.437 215.149 148.179 215.891 147.994 216.818C147.993 217.746 147.252 218.302 146.324 218.302Z" fill="#ED7E97"/>
<path d="M398.362 128.355C397.435 128.355 396.693 127.613 396.693 126.686C397.249 104.802 378.518 102.206 377.776 102.02C377.034 102.02 376.478 101.464 376.292 100.722C374.994 93.1179 371.841 87.7399 367.019 84.5869C359.972 79.7649 351.255 81.6199 351.255 81.6199C350.328 81.8049 349.586 81.249 349.4 80.322C349.215 79.395 349.771 78.6529 350.698 78.4669C351.069 78.4669 360.713 76.4269 369.058 81.9909C374.436 85.5149 377.96 91.264 379.444 99.239C384.08 100.352 400.586 105.545 400.03 127.058C400.031 127.613 399.29 128.355 398.362 128.355Z" fill="#ED7E97"/>
<path d="M100.331 137.071C99.5891 137.071 99.0332 136.7 98.8472 135.958C98.6622 135.587 95.8802 126.129 100.702 117.412C103.855 111.848 109.233 107.768 117.022 105.543C117.578 100.907 121.473 83.8439 142.801 82.5459C143.728 82.5459 144.47 83.1018 144.47 84.0298C144.47 84.9578 143.914 85.6989 142.986 85.6989C121.102 86.9969 120.175 105.914 120.175 106.656C120.175 107.398 119.619 107.954 118.877 108.14C111.459 110.18 106.451 113.704 103.669 118.711C99.5891 126.315 102 134.66 102 134.66C102.185 135.587 101.815 136.515 100.887 136.7C100.702 137.071 100.516 137.071 100.331 137.071Z" fill="#ED7E97"/>
<path d="M305.819 282.841C300.812 282.841 295.619 280.615 290.241 276.164C289.499 275.608 289.499 274.495 290.056 273.938C290.612 273.196 291.725 273.196 292.282 273.753C297.66 278.204 303.039 280.244 307.86 279.502C314.907 278.389 318.988 272.084 319.173 272.084C319.544 271.528 320.286 271.157 321.028 271.342C340.316 276.349 347.178 257.989 347.363 257.247C347.734 256.32 348.661 255.949 349.403 256.32C350.33 256.691 350.701 257.618 350.33 258.36C350.33 258.545 342.541 279.688 321.213 274.866C319.544 276.906 315.278 281.728 308.416 282.841C307.488 282.841 306.746 282.841 305.819 282.841Z" fill="#ED7E97"/>
<path d="M156.895 277.463C147.993 277.463 136.309 274.496 131.302 260.586C130.931 259.659 131.487 258.731 132.229 258.546C133.156 258.175 134.084 258.731 134.269 259.473C141.873 280.801 166.724 273.011 167.652 272.826C168.579 272.455 169.507 273.011 169.692 273.939C169.877 274.866 169.507 275.794 168.579 275.979C168.579 275.794 163.387 277.463 156.895 277.463Z" fill="#ED7E97"/>
<path d="M105.709 167.486C104.967 167.486 104.411 166.93 104.225 166.373C104.225 166.002 96.0654 137.256 120.731 129.281C121.658 128.91 122.586 129.466 122.771 130.394C122.956 131.322 122.586 132.249 121.658 132.434C100.145 139.296 107.007 164.333 107.378 165.446C107.563 166.373 107.193 167.301 106.265 167.486C106.08 167.486 105.894 167.486 105.709 167.486Z" fill="#ED7E97"/>
<path d="M228.482 114.26C227.74 114.26 227.184 113.889 226.998 113.147C217.169 83.288 238.311 69.193 243.318 66.411C242.391 54.171 244.802 45.083 250.18 39.52C255.929 33.4 263.162 33.4 264.46 33.4C265.387 33.4 266.129 34.142 266.129 35.069C266.129 35.996 265.387 36.738 264.46 36.738C263.718 36.738 257.413 36.738 252.591 41.931C247.769 47.124 245.729 55.655 246.656 67.524C246.656 68.266 246.285 68.822 245.729 69.193C244.616 69.749 219.95 81.804 230.151 112.59C230.522 113.517 229.415 114.26 228.482 114.26Z" fill="#ED7E97"/>
<path d="M313.237 159.883C317.132 156.73 323.066 159.883 322.51 164.89C322.51 164.89 322.51 164.89 322.51 165.075C319.543 190.112 302.666 211.996 270.953 218.487C242.763 224.236 216.799 208.658 210.864 195.119C209.009 191.039 209.009 187.144 211.42 183.991C219.209 173.791 241.093 188.071 271.694 181.024C290.055 176.759 304.52 167.115 313.237 159.883Z" fill="#22213F"/>
<path d="M322.51 164.519C322.51 164.704 322.51 164.704 322.51 164.89C277.815 215.149 211.606 195.12 210.864 194.934C209.009 190.854 209.009 186.959 211.42 183.806C219.209 173.606 241.093 187.886 271.694 180.839C290.054 176.573 304.706 166.744 313.422 159.511C317.317 156.544 323.066 159.512 322.51 164.519Z" fill="white"/>
<path d="M258.898 221.269C237.756 221.269 218.468 210.698 211.05 198.829C207.341 192.894 206.97 187.145 210.123 182.88C214.574 176.945 222.734 178.058 233.305 179.542C243.505 181.026 256.487 182.695 271.324 179.357C288.943 175.277 303.037 166.004 311.754 158.957C314.165 156.917 317.503 156.731 320.285 158.215C323.067 159.699 324.551 162.666 324.18 165.819C320.656 193.823 300.998 214.038 271.51 219.973C267.243 220.713 262.978 221.269 258.898 221.269ZM221.435 181.581C217.54 181.581 214.573 182.323 212.904 184.734C209.751 188.814 212.162 194.192 214.017 196.974C221.064 208.102 244.061 222.196 270.953 216.633C298.957 210.884 317.689 191.782 321.027 165.261C321.212 163.035 320.1 161.552 318.801 160.995C317.503 160.253 315.648 160.068 313.979 161.366C305.077 168.599 290.426 178.243 272.251 182.323C256.673 185.847 243.505 183.992 232.934 182.508C228.482 182.138 224.588 181.581 221.435 181.581Z" fill="#BF4B6F"/>
<path d="M375.551 268.747C417.65 249.83 428.036 217.931 425.81 186.033C425.254 178.986 418.577 173.978 411.53 175.833C411.345 175.833 411.345 175.833 411.159 175.833C405.781 177.131 402.072 182.139 402.442 187.702C407.078 252.612 338.273 259.103 285.789 250.016C279.483 248.903 273.363 253.354 272.436 259.66C271.323 265.966 275.774 272.086 282.08 273.013C300.069 275.609 343.838 280.987 375.551 268.747Z" fill="#ED7E97"/>
<path d="M399.29 214.778C393.912 229.429 382.97 240.371 366.649 247.048C346.434 255.394 310.084 253.168 291.909 250.757C293.022 250.942 324.735 259.103 348.845 256.877C373.325 254.652 398.919 239.259 399.29 214.778Z" fill="#F490AA"/>
<path d="M375.551 268.747C417.465 250.016 427.85 218.302 425.81 186.589C425.254 179.356 418.206 174.349 411.159 176.389C410.974 176.389 410.974 176.389 410.788 176.574C401.701 178.985 402.628 188.072 402.628 188.072C431.189 229.986 385.38 278.019 286.531 273.939C300.811 275.609 346.99 280.616 375.551 268.747Z" fill="#E26988"/>
<path d="M284.305 257.805C283.934 258.176 282.821 259.474 280.41 260.587C279.668 260.958 278.926 261.329 277.999 261.7C275.403 262.813 271.693 263.74 267.057 263.925C263.162 264.11 258.34 263.74 252.777 262.627C249.624 261.885 247.584 258.918 248.141 255.765C248.697 253.169 250.737 251.314 253.334 251.129C253.89 251.129 254.447 251.129 255.189 251.129C265.946 253.355 271.88 251.685 274.291 250.387C275.033 250.016 275.589 249.645 275.589 249.645L275.404 249.83L284.305 257.805Z" fill="#ED7E97"/>
<path d="M287.458 254.652C287.643 257.248 286.16 259.474 283.749 260.401C283.193 260.586 282.636 260.772 281.894 260.772C281.338 260.772 280.781 260.772 280.41 260.587C277.814 260.031 275.959 257.991 275.774 255.209C275.589 253.54 275.218 251.871 274.476 250.573C273.92 249.46 273.178 248.533 272.621 247.791C270.766 245.565 268.912 244.267 268.912 244.267C266.13 242.412 265.574 238.889 267.243 236.107C269.098 233.511 272.621 232.769 275.403 234.438C275.589 234.808 286.716 242.226 287.458 254.652Z" fill="#ED7E97"/>
<path d="M282.822 273.198C278.186 275.053 274.105 275.238 270.767 273.754C267.429 272.27 265.574 269.303 265.018 267.263C264.276 264.11 266.131 260.957 269.284 260.216C272.066 259.474 274.662 260.772 275.961 263.183C276.703 263.183 278.001 262.812 280.412 261.514C283.194 260.03 286.718 261.143 288.387 263.925C289.871 266.707 288.758 270.231 285.976 271.9C284.676 272.456 283.749 272.827 282.822 273.198Z" fill="#ED7E97"/>
<path d="M275.589 276.536C273.549 276.536 271.88 276.165 270.211 275.423C266.316 273.754 264.091 270.416 263.534 267.819C263.163 266.521 263.163 265.037 263.534 263.739C263.719 262.812 264.647 262.441 265.574 262.626C266.501 262.811 266.872 263.739 266.687 264.666C266.502 265.408 266.502 266.15 266.687 266.892C267.243 268.747 268.727 271.158 271.509 272.456C274.476 273.754 277.475 273.484 281.741 271.815C281.741 271.815 284.121 271.9 284.306 272.827C284.677 273.754 284.306 274.682 283.379 274.867C280.596 275.98 278 276.536 275.589 276.536Z" fill="#BF4B6F"/>
<path d="M267.429 263.925H267.058C263.163 264.11 258.341 263.74 252.778 262.627C249.625 261.885 247.585 258.918 248.142 255.765C248.698 253.169 250.738 251.314 253.335 251.129C252.963 252.055 248.512 260.772 267.429 263.925Z" fill="#F490AA"/>
<path d="M275.218 234.437C273.92 234.808 268.541 236.848 272.622 247.79C270.767 245.564 268.913 244.266 268.913 244.266C266.131 242.411 265.575 238.888 267.244 236.106C268.912 233.51 272.436 232.768 275.218 234.437Z" fill="#F490AA"/>
<path d="M264.832 265.779C260.937 265.779 256.857 265.408 252.406 264.481C250.366 264.11 248.697 262.997 247.584 261.328C246.471 259.659 246.1 257.619 246.471 255.764C246.842 253.724 247.955 252.055 249.624 250.942C251.293 249.829 253.333 249.458 255.188 249.829C265.574 251.869 270.952 250.385 273.363 249.273C274.105 248.902 275.218 249.273 275.589 250.015C275.96 250.757 275.96 251.87 275.218 252.241C272.436 253.539 265.945 255.394 254.632 252.983C253.519 252.798 252.406 252.983 251.479 253.539C250.552 254.095 249.81 255.023 249.624 256.135C249.439 257.248 249.624 258.361 250.18 259.288C250.736 260.215 251.664 260.957 252.776 261.143C258.34 262.256 263.533 262.627 268.169 262.256C269.096 262.071 269.838 262.812 270.024 263.74C270.024 264.667 269.468 265.409 268.54 265.595C267.614 265.594 266.316 265.779 264.832 265.779Z" fill="#BF4B6F"/>
<path d="M274.476 252.241C273.92 252.241 273.363 251.87 272.992 251.314C271.137 247.79 267.799 245.565 267.799 245.565C264.461 243.339 263.533 238.703 265.759 235.179C266.872 233.51 268.541 232.397 270.581 232.026C272.621 231.655 274.476 232.026 276.145 233.139C276.516 233.324 284.272 239.445 287.054 249.645C287.239 250.572 288.015 251.314 287.087 251.499C286.16 251.684 284.49 251.354 284.305 250.426C281.709 241.524 274.661 236.106 274.29 235.92C273.363 235.364 272.25 234.993 271.137 235.364C270.024 235.549 269.097 236.291 268.541 237.219C267.243 239.074 267.799 241.855 269.654 242.968C269.654 242.968 273.549 245.75 275.96 250.015C276.331 250.757 276.145 251.87 275.218 252.241C274.847 252.241 274.662 252.241 274.476 252.241Z" fill="#BF4B6F"/>
<path d="M320.655 278.576C306.931 278.576 293.578 277.092 282.08 274.867C281.153 274.682 280.596 273.754 280.782 273.012C280.967 272.085 281.895 271.528 282.637 271.714C318.06 278.947 370.359 277.649 400.959 250.757C418.392 235.364 426.181 213.851 424.327 186.403C424.142 183.436 422.658 180.839 420.247 179.17C417.836 177.501 414.869 176.944 411.901 177.501C407.079 178.614 403.926 183.065 404.297 187.887C405.966 208.102 400.217 224.051 387.42 235.55C363.496 257.063 319.171 257.99 285.603 251.685C284.676 251.5 284.119 250.572 284.305 249.83C284.49 248.903 285.418 248.346 286.16 248.532C318.986 254.652 362.198 253.91 385.195 233.139C397.25 222.382 402.443 207.175 400.959 188.073C400.403 181.582 404.668 175.833 410.974 174.164C414.869 173.237 418.763 173.979 421.916 176.204C425.069 178.43 427.109 181.953 427.294 185.848C429.334 214.223 421.174 236.849 402.999 252.798C381.671 271.899 350.143 278.576 320.655 278.576Z" fill="#BF4B6F"/>
<path d="M54.889 71.9751L55.9919 78.9081C56.4649 82.3741 59.301 85.0531 62.767 85.5261L69.3849 86.4711L62.61 87.7311C59.459 88.3611 56.938 90.8821 56.308 94.0331L55.048 100.808L53.788 94.1901C53.158 91.0391 50.7939 88.5181 47.6429 87.8881L40.71 86.4701L47.17 85.6821C50.636 85.2091 53.3149 82.5311 53.9449 79.0641L54.889 71.9751Z" fill="#F9C710"/>
<path d="M54.8893 102.069C54.2593 102.069 53.6293 101.596 53.4713 100.966L52.2113 94.348C51.7383 91.669 49.6903 89.6209 47.1693 89.1479L40.2363 87.7299C39.6063 87.5719 39.1333 86.9419 39.1333 86.312C39.1333 85.682 39.6063 85.0519 40.3933 84.8939L46.8533 84.106C49.6893 83.791 51.8953 81.585 52.3683 78.749L53.4713 71.6589C53.6293 71.0289 54.2593 70.3989 54.8893 70.3989C55.5193 70.3989 56.1493 70.8719 56.3073 71.6589L57.4103 78.5919C57.8833 81.4279 60.0894 83.6339 62.9254 84.1069L69.5433 85.0519C70.1733 85.2099 70.8033 85.6819 70.8033 86.4699C70.8033 87.0999 70.3303 87.7299 69.7003 87.8879L62.9254 89.1479C60.2464 89.6209 58.1983 91.669 57.7253 94.348L56.4653 101.123C56.1503 101.597 55.6773 102.069 54.8893 102.069ZM48.7453 86.4709C51.7393 87.4159 54.1023 89.7799 54.8903 92.7729C55.6783 89.7789 58.0413 87.2579 60.8773 86.3129C58.0413 85.3679 55.6783 83.1619 54.7323 80.1679C53.9443 83.3189 51.5813 85.6829 48.7453 86.4709Z" fill="#A55A0F"/>
<path d="M23.7959 113.116L24.5839 118C24.8989 120.363 26.9469 122.412 29.3109 122.727L33.8799 123.357L28.9959 124.302C26.7899 124.775 24.8989 126.508 24.5839 128.714L23.7959 133.441L23.0079 128.714C22.5349 126.508 20.8019 124.775 18.5959 124.302L13.7119 123.357L18.2809 122.727C20.6439 122.412 22.6929 120.521 23.0079 118.158L23.7959 113.116Z" fill="#F9C710"/>
<path d="M23.796 134.702C23.166 134.702 22.5359 134.229 22.3779 133.599L21.59 128.872C21.275 127.139 20.0139 125.878 18.2809 125.563L13.397 124.618C12.767 124.46 12.2939 123.83 12.2939 123.2C12.2939 122.57 12.767 121.94 13.554 121.782L18.123 121.152C19.856 120.994 21.4319 119.576 21.7469 117.686L22.535 112.802C22.693 112.172 23.3229 111.542 23.9529 111.542C24.5829 111.542 25.213 112.015 25.371 112.802L26.1589 117.686C26.4739 119.419 27.8919 120.995 29.6249 121.152L34.194 121.782C34.824 121.94 35.454 122.412 35.454 123.2C35.454 123.988 34.981 124.46 34.351 124.618L29.467 125.563C27.734 125.878 26.473 127.139 26.158 128.872L25.3699 133.599C25.0569 134.229 24.426 134.702 23.796 134.702ZM20.645 123.358C22.063 123.988 23.166 125.249 23.796 126.667C24.426 125.249 25.529 124.146 26.947 123.358C25.529 122.728 24.426 121.625 23.796 120.207C23.166 121.467 21.905 122.727 20.645 123.358Z" fill="#A55A0F"/>
<path d="M41.4873 159.059L42.2753 163.943C42.5903 166.306 44.6383 168.355 47.0023 168.67L51.5714 169.3L46.6873 170.245C44.4813 170.718 42.5903 172.451 42.2753 174.657L41.4873 179.384L40.6993 174.657C40.2263 172.451 38.4934 170.718 36.2874 170.245L31.4033 169.3L35.9724 168.67C38.3354 168.355 40.3843 166.464 40.6993 164.101L41.4873 159.059Z" fill="#F9C710"/>
<path d="M41.4873 180.644C40.8573 180.644 40.2273 180.171 40.0693 179.541L39.2813 174.814C38.9663 173.081 37.7054 171.82 35.9724 171.505L31.0883 170.56C30.4583 170.402 29.9854 169.772 29.9854 169.142C29.9854 168.512 30.4583 167.882 31.2453 167.724L35.8143 167.094C37.5473 166.936 39.1234 165.518 39.4384 163.628L40.2263 158.744C40.3843 158.114 41.0143 157.484 41.6443 157.484C42.2743 157.484 42.9043 157.957 43.0623 158.744L43.8503 163.628C44.1653 165.361 45.5833 166.937 47.3163 167.094L51.8853 167.724C52.5153 167.882 53.1453 168.354 53.1453 169.142C53.1453 169.93 52.6723 170.402 52.0423 170.56L47.1583 171.505C45.4253 171.82 44.1643 173.081 43.8493 174.814L43.0613 179.541C42.7473 180.172 42.1173 180.644 41.4873 180.644ZM38.3363 169.3C39.7543 169.93 40.8573 171.191 41.4873 172.609C42.1173 171.191 43.2203 170.088 44.6383 169.3C43.2203 168.67 42.1173 167.567 41.4873 166.149C40.8573 167.409 39.5963 168.67 38.3363 169.3Z" fill="#A55A0F"/>
<path d="M281.374 156.682C281.068 156.682 280.766 156.571 280.528 156.354C280.104 155.965 280 155.337 280.276 154.833C286.366 143.696 302.136 133.96 302.805 133.551C303.392 133.191 304.162 133.376 304.524 133.965C304.884 134.553 304.699 135.323 304.11 135.683C303.973 135.767 292.218 143.025 285.305 151.803C294.269 147.288 315.194 139.105 338.67 146.186C339.33 146.385 339.705 147.083 339.505 147.744C339.306 148.405 338.614 148.78 337.947 148.58C308.009 139.549 282.321 156.302 282.065 156.473C281.855 156.613 281.613 156.682 281.374 156.682Z" fill="#22213F"/>
<path d="M281.374 157.057C280.968 157.057 280.578 156.906 280.276 156.631C279.721 156.122 279.587 155.309 279.947 154.652C286.088 143.422 301.938 133.641 302.61 133.23C303.369 132.761 304.373 133.003 304.843 133.768C305.311 134.533 305.07 135.535 304.305 136.002C304.195 136.07 293.619 142.613 286.689 150.709C295.793 146.4 316.21 139.02 338.778 145.826C339.193 145.951 339.535 146.231 339.74 146.614C339.946 146.997 339.989 147.436 339.864 147.852C339.606 148.707 338.699 149.195 337.84 148.938C307.947 139.918 282.527 156.613 282.275 156.783C282.006 156.963 281.695 157.057 281.374 157.057ZM303.455 133.742C303.3 133.742 303.143 133.784 303.002 133.87C302.337 134.277 286.651 143.956 280.606 155.012C280.412 155.366 280.485 155.804 280.783 156.077C281.073 156.341 281.532 156.376 281.858 156.16C282.114 155.989 307.833 139.1 338.056 148.22C338.518 148.357 339.007 148.097 339.146 147.635C339.214 147.41 339.191 147.174 339.08 146.968C338.97 146.762 338.786 146.612 338.562 146.544C314.864 139.397 293.541 148.074 285.475 152.137L283.967 152.896L285.011 151.57C291.94 142.771 303.795 135.436 303.914 135.363C304.326 135.111 304.456 134.571 304.204 134.16C304.039 133.891 303.75 133.742 303.455 133.742Z" fill="#22213F"/>
</svg>
