<svg width="457" height="581" viewBox="0 0 457 581" fill="none" xmlns="http://www.w3.org/2000/svg">
<path d="M78.1486 389.067C77.986 389.158 61.7166 398.27 48.4073 416.903C31.1126 441.121 29.3379 461.219 40.7859 482.07C42.8393 483.523 48.7593 487.922 52.2059 492.582C53.7779 494.711 53.3272 497.713 51.2006 499.286C49.0712 500.858 46.0699 500.409 44.4966 498.281C42.9913 496.242 40.5713 494.05 38.4406 492.321C38.2753 492.474 38.1032 492.621 37.9259 492.763C38.3192 496.115 39.4979 500.205 42.6113 503.458C44.4406 505.37 44.3752 508.403 42.4619 510.234C40.5499 512.062 37.5153 511.997 35.6859 510.085C31.7459 505.964 29.8019 501.185 28.8913 496.887C27.7486 501.57 29.2633 505.721 29.3806 506.03C30.3406 508.482 29.1472 511.257 26.6926 512.232C24.2339 513.213 21.4459 512.014 20.4646 509.556C18.5766 504.822 17.3192 495.099 23.0672 486.847C23.0672 486.847 2.40326 444.467 33.9806 405.537C43.8406 393.378 53.3873 384.049 60.4726 378.811C65.5486 375.059 69.0166 373.145 69.3473 372.963C73.7979 370.541 79.3819 372.178 81.8059 376.626C84.2286 381.075 82.6006 386.646 78.1486 389.067Z" fill="#D11313"/>
<path d="M77.5487 374.798C75.3967 373.49 72.6194 373.329 70.2474 374.62C70.1034 374.699 66.6594 376.581 61.594 380.328C54.0687 385.889 44.5394 395.51 35.4434 406.725C5.02605 444.229 24.562 485.611 24.7647 486.024C25.062 486.64 25.0047 487.368 24.6154 487.928C19.2194 495.67 20.5687 504.728 22.2154 508.857C22.5034 509.578 23.058 510.149 23.7687 510.452C24.482 510.759 25.2713 510.769 25.9927 510.481C27.4753 509.892 28.206 508.205 27.622 506.72C27.4247 506.193 25.79 501.629 27.058 496.441C27.2674 495.586 28.0394 494.99 28.9181 495.004C29.7981 495.016 30.55 495.634 30.7327 496.498C31.7607 501.345 33.8834 505.477 37.0461 508.782C38.1514 509.94 39.9967 509.981 41.158 508.873C41.7167 508.337 42.0367 507.614 42.0527 506.837C42.07 506.06 41.7834 505.324 41.2461 504.762C38.4021 501.789 36.6047 497.716 36.0487 492.985C35.9727 492.337 36.2367 491.694 36.7474 491.289C36.8887 491.176 37.026 491.059 37.1607 490.936C37.8487 490.3 38.894 490.273 39.626 490.857C41.5967 492.459 44.302 494.849 46.0087 497.161C46.4713 497.785 47.1487 498.19 47.9154 498.306C48.6834 498.424 49.4501 498.232 50.0741 497.77C50.6981 497.308 51.1061 496.63 51.2207 495.864C51.3367 495.097 51.1474 494.33 50.6834 493.705C47.362 489.213 41.4314 484.841 39.6914 483.609C39.4594 483.444 39.2673 483.228 39.1287 482.978C27.0367 460.954 29.4233 440.237 46.87 415.81C60.33 396.961 76.5433 387.801 77.226 387.421C77.2313 387.417 77.2367 387.414 77.242 387.412C78.9513 386.484 80.194 384.944 80.742 383.077C81.29 381.212 81.078 379.24 80.1474 377.528C79.5154 376.365 78.6074 375.444 77.5487 374.798ZM21.4393 513.478C20.246 512.753 19.27 511.649 18.714 510.254C16.8487 505.578 15.314 495.516 20.926 486.666C18.0487 479.905 3.25806 440.423 32.5154 404.348C41.8021 392.897 51.5834 383.036 59.3514 377.293C64.5367 373.46 68.0607 371.514 68.4461 371.305C73.8074 368.387 80.546 370.368 83.462 375.724C84.8767 378.32 85.1967 381.306 84.3647 384.137C83.534 386.968 81.6514 389.302 79.0607 390.717C78.6887 390.926 62.8127 399.981 49.9434 418C33.5514 440.953 31.166 460.338 42.2367 480.788C44.806 482.634 50.3353 486.881 53.7233 491.462C55.9113 494.426 55.2833 498.616 52.3233 500.802C50.8873 501.864 49.126 502.301 47.362 502.038C45.598 501.774 44.0434 500.838 42.9834 499.404C42.4327 498.659 41.6967 497.83 40.8047 496.942C41.5314 498.962 42.5927 500.709 43.9753 502.156C45.21 503.445 45.8674 505.134 45.8274 506.918C45.7874 508.704 45.0553 510.362 43.7673 511.598C41.106 514.143 36.8727 514.05 34.3247 511.39C33.3234 510.344 32.4114 509.228 31.594 508.045C31.4887 510.594 29.9114 512.982 27.3887 513.984C25.3647 514.79 23.174 514.533 21.4393 513.478Z" fill="#AD0000"/>
<path d="M355.462 302.252C355.642 302.208 373.74 297.72 391.502 283.265C414.582 264.481 421.606 245.566 416.076 222.432C414.483 220.486 409.936 214.681 407.843 209.274C406.888 206.804 408.115 204.03 410.584 203.074C413.054 202.121 415.828 203.348 416.783 205.817C417.698 208.181 419.451 210.934 421.048 213.166C421.248 213.062 421.454 212.965 421.663 212.877C422.17 209.54 422.112 205.285 419.97 201.325C418.712 198.997 419.576 196.089 421.906 194.829C424.234 193.57 427.142 194.437 428.402 196.764C431.114 201.777 431.724 206.901 431.467 211.288C433.807 207.072 433.444 202.67 433.412 202.342C433.132 199.724 435.019 197.362 437.643 197.07C440.272 196.776 442.646 198.668 442.94 201.297C443.51 206.362 442.156 216.07 434.43 222.509C434.43 222.509 443.158 268.844 402.414 298.046C389.69 307.166 378.016 313.641 369.799 316.82C363.912 319.097 360.062 320.026 359.695 320.113C354.763 321.274 349.81 318.22 348.648 313.288C347.486 308.349 350.528 303.409 355.462 302.252Z" fill="#D11313"/>
<path d="M429.583 211.174C429.875 206.229 428.919 201.681 426.742 197.657C425.987 196.257 424.215 195.722 422.802 196.485C422.118 196.852 421.621 197.465 421.399 198.212C421.178 198.956 421.261 199.741 421.629 200.425C423.586 204.042 424.243 208.446 423.526 213.157C423.43 213.8 423.005 214.349 422.406 214.608C422.242 214.678 422.079 214.753 421.923 214.836C421.087 215.27 420.059 215.024 419.515 214.264C418.041 212.202 416.062 209.181 415.025 206.497C414.745 205.774 414.202 205.202 413.49 204.888C412.778 204.572 411.99 204.554 411.266 204.834C409.771 205.412 409.025 207.101 409.603 208.596C411.618 213.808 416.183 219.59 417.535 221.237C417.715 221.458 417.843 221.717 417.91 221.994C423.751 246.433 415.974 265.781 392.691 284.729C374.623 299.434 356.093 304.041 355.907 304.086C355.902 304.088 355.898 304.088 355.894 304.089C353.999 304.533 352.395 305.689 351.375 307.345C350.353 309 350.037 310.956 350.485 312.853C351.403 316.765 355.342 319.198 359.265 318.277C359.426 318.238 363.257 317.328 369.119 315.06C377.843 311.682 389.579 304.925 401.317 296.513C440.563 268.382 432.661 223.309 432.575 222.854C432.45 222.184 432.695 221.497 433.221 221.058C440.471 215.017 441.563 205.926 441.067 201.509C440.982 200.737 440.602 200.045 439.991 199.561C439.382 199.074 438.623 198.856 437.849 198.945C436.267 199.12 435.118 200.554 435.289 202.166C435.339 202.702 435.706 207.538 433.114 212.204C432.687 212.97 431.785 213.345 430.939 213.098C430.657 213.014 430.402 212.87 430.195 212.681C429.786 212.302 429.55 211.757 429.583 211.174ZM444.815 201.085C445.377 206.082 444.197 216.193 436.447 223.246C437.435 230.525 441.265 272.516 403.511 299.574C391.526 308.165 379.487 315.089 370.479 318.573C364.479 320.896 360.553 321.844 360.126 321.945C354.183 323.344 348.211 319.657 346.813 313.716C346.134 310.838 346.614 307.872 348.165 305.362C349.715 302.85 352.15 301.097 355.021 300.418C355.401 300.324 373.095 295.816 390.314 281.802C412.189 264 419.613 245.936 414.341 223.286C412.351 220.826 408.141 215.27 406.085 209.954C404.758 206.52 406.47 202.646 409.903 201.317C411.567 200.673 413.382 200.716 415.013 201.438C416.643 202.158 417.897 203.473 418.542 205.136C418.905 206.078 419.418 207.092 419.991 208.086C419.825 205.945 419.263 203.982 418.311 202.22C417.461 200.65 417.275 198.846 417.783 197.134C418.293 195.426 419.438 194.017 421.006 193.169C424.246 191.42 428.299 192.626 430.058 195.866C430.747 197.141 431.331 198.46 431.81 199.82C432.585 197.382 434.734 195.497 437.429 195.197C439.418 194.972 441.31 195.653 442.683 196.909C443.835 197.96 444.626 199.416 444.815 201.085Z" fill="#AD0000"/>
<path d="M260.974 561.657C258.702 561.657 256.523 561.839 254.506 562.175L262.669 492.021C262.695 491.786 262.715 491.529 262.723 491.287C262.89 486.334 259.01 482.181 254.055 482.014C249.103 481.847 244.95 485.729 244.783 490.682L242.137 569.209C242.129 569.475 242.146 569.737 242.173 569.998C242.169 570.068 242.161 570.135 242.161 570.207C242.161 574.93 250.583 578.758 260.973 578.758C271.362 578.758 279.785 574.93 279.785 570.207C279.785 565.485 271.365 561.657 260.974 561.657Z" fill="#D11313"/>
<path d="M191.41 482.112C186.545 481.426 182.087 485.01 181.258 489.852L168.783 562.578C166.229 561.99 163.342 561.656 160.282 561.656C149.893 561.656 141.47 565.483 141.47 570.206C141.47 574.929 149.893 578.757 160.282 578.757C169.131 578.757 175.242 576.549 178.066 572.452C178.722 571.501 179.121 570.395 179.407 569.277L198.861 493.222C198.918 492.997 198.971 492.748 199.011 492.514C199.865 487.541 196.446 482.819 191.41 482.112Z" fill="#D11313"/>
<path d="M253.754 483.78C251.914 483.78 250.177 484.462 248.833 485.721C247.427 487.036 246.617 488.818 246.551 490.741C246.571 491.172 246.281 499.6 245.563 520.157C244.849 540.617 243.871 568.634 243.927 570.086C243.93 570.137 243.933 570.241 243.93 570.293C243.867 571.559 244.705 572.721 246.421 573.75C252.951 577.67 269.002 577.677 275.529 573.762C277.246 572.732 278.085 571.566 278.019 570.294C278.018 567.006 270.729 563.425 260.974 563.425C258.846 563.425 256.769 563.592 254.797 563.92C254.247 564.011 253.689 563.84 253.286 563.457C252.883 563.073 252.685 562.522 252.75 561.97L260.913 491.818C261.154 489.833 260.529 487.817 259.207 486.281C257.885 484.748 255.991 483.838 254.006 483.782C253.923 483.781 253.837 483.78 253.754 483.78ZM260.994 580.232C254.715 580.233 248.434 579.081 244.602 576.784C240.965 574.602 240.306 571.961 240.395 570.126C240.375 567.937 240.833 554.285 242.029 520.033C242.542 505.373 243.025 491.524 243.017 490.726C243.113 487.754 244.322 485.097 246.417 483.136C248.514 481.178 251.233 480.176 254.115 480.248C257.082 480.333 259.917 481.689 261.883 483.972C263.855 486.261 264.781 489.272 264.426 492.235L256.526 560.118C257.978 559.964 259.466 559.889 260.975 559.889C272.709 559.889 281.555 564.324 281.555 570.206C281.647 571.957 280.994 574.609 277.349 576.793C273.529 579.086 267.263 580.232 260.994 580.232Z" fill="#AD0000"/>
<path d="M160.282 563.425C150.527 563.425 143.238 567.005 143.238 570.207C143.238 573.409 150.527 576.99 160.282 576.99C169.951 576.99 177.018 573.523 177.314 570.414C177.323 570.325 177.338 570.233 177.36 570.145L197.149 492.785C197.193 492.606 197.236 492.403 197.27 492.218C197.939 488.3 195.299 484.569 191.383 483.897C187.467 483.225 183.734 485.864 183.062 489.782L170.524 562.881C170.442 563.361 170.167 563.785 169.763 564.054C169.356 564.323 168.859 564.411 168.385 564.305C165.859 563.721 163.133 563.425 160.282 563.425ZM160.282 580.525C148.549 580.525 139.703 576.09 139.703 570.207C139.703 564.325 148.55 559.889 160.282 559.889C162.727 559.889 165.098 560.088 167.349 560.485L179.578 489.181C180.579 483.345 186.144 479.409 191.983 480.409C197.82 481.41 201.754 486.975 200.754 492.814C200.707 493.092 200.642 493.389 200.574 493.657L180.818 570.898C180.147 576.399 171.371 580.525 160.282 580.525Z" fill="#AD0000"/>
<path d="M263.187 40.3904L265.69 15.8665C266.445 10.4158 257.691 4.70245 246.138 3.10379C234.586 1.50513 224.609 4.62642 223.855 10.0744L221.615 34.3705C220.093 34.4358 218.561 34.5318 217.026 34.6531L211.966 8.99577C210.978 3.58244 200.875 0.89711 189.402 2.99577C177.931 5.09311 169.433 11.1811 170.423 16.5931L175.515 44.4065C172.471 45.5851 169.429 46.8651 166.389 48.2425L150.994 21.6998C148.073 17.0385 137.693 18.2785 127.813 24.4704C117.931 30.6651 112.286 39.4625 115.209 44.1251L129.105 69.4664C74.9727 106.905 69.8367 145.848 69.8367 145.848L338.407 168.21C334.546 96.5051 304.043 55.0798 263.187 40.3904Z" fill="#D11313"/>
<path d="M72.5581 143.801L335.991 165.735C331.929 101.847 305.861 58.1435 262.422 42.5208C261.442 42.1701 260.827 41.1942 260.934 40.1608L263.437 15.6342C263.945 11.9568 256.515 6.82614 245.827 5.34613C235.143 3.86746 226.599 6.78618 226.099 10.3862L223.873 34.5755C223.767 35.7075 222.841 36.5889 221.713 36.6302C220.215 36.6942 218.714 36.7901 217.207 36.9075C216.061 36.9995 215.027 36.2168 214.805 35.0901L209.745 9.43286C209.087 5.82886 200.427 3.27684 189.813 5.22218C184.586 6.17818 179.879 8.01414 176.559 10.3902C173.81 12.3595 172.349 14.5235 172.653 16.1808L177.745 43.9968C177.941 45.0675 177.349 46.1248 176.334 46.5168C173.362 47.6675 170.33 48.9422 167.326 50.3022C166.267 50.7835 165.014 50.3835 164.431 49.3768L149.035 22.8329C148.179 21.4702 145.641 20.8568 142.281 21.2595C138.209 21.7488 133.514 23.5662 129.013 26.3862C124.51 29.2075 120.818 32.6541 118.613 36.0901C116.786 38.9381 116.23 41.4901 117.123 42.9155L131.089 68.3728C131.647 69.3902 131.345 70.6648 130.39 71.3248C85.2087 102.575 74.6754 134.962 72.5581 143.801ZM338.693 170.456C338.537 170.476 338.378 170.479 338.215 170.465L69.6474 148.105C69.0288 148.054 68.4594 147.751 68.0701 147.269C67.6807 146.786 67.5075 146.166 67.5875 145.552C67.8008 143.937 73.3634 105.979 126.138 68.7728L113.218 45.2128C111.382 42.2875 111.918 38.1395 114.798 33.6475C117.355 29.6608 121.55 25.7195 126.606 22.5502C131.662 19.3808 137.011 17.3422 141.742 16.7635C147.042 16.1288 151.007 17.4555 152.911 20.4955L167.326 45.3435C169.203 44.5155 171.085 43.7262 172.951 42.9808L168.194 16.9995C167.549 13.4689 169.582 9.8168 173.921 6.71013C177.771 3.95146 183.126 1.84082 188.997 0.767487C202.109 -1.62317 212.942 1.73151 214.197 8.58884L218.862 32.2515C219.091 32.2368 219.317 32.2235 219.543 32.2088L221.602 9.86885C222.57 2.85953 233.253 -0.965851 246.45 0.859482C259.654 2.68748 268.89 9.27283 267.935 16.1782L265.621 38.8755C310.465 55.8728 337.093 101.673 340.667 168.089C340.703 168.741 340.454 169.379 339.985 169.835C339.627 170.178 339.174 170.394 338.693 170.456Z" fill="#AD0000"/>
<path d="M107.453 59.761C107.407 60.2997 107.257 60.8236 107.014 61.325C103.825 73.5863 106.455 87.617 106.455 87.617L112.169 127.756L87.6539 150.997L10.0898 224.53C13.4018 172.509 38.3592 137.08 38.3592 137.08C26.0658 82.1436 39.5552 54.2196 39.5552 54.2196C40.0952 47.6276 55.7259 43.525 74.4805 45.061C93.2259 46.593 107.993 53.1743 107.453 59.761Z" fill="#FC3838"/>
<path d="M107.452 59.7611C107.407 60.2998 107.257 60.8237 107.014 61.3251C103.825 73.5864 106.455 87.6171 106.455 87.6171L112.169 127.756L87.6539 150.997L64.5898 149.357C64.5898 149.357 103.57 100.424 91.3165 76.1104C79.0565 51.7957 39.5552 54.2211 39.5552 54.2211C40.0952 47.6291 55.7258 43.5264 74.4805 45.0624C93.2258 46.5931 107.993 53.1744 107.452 59.7611Z" fill="#EA2A21"/>
<path d="M58.4793 47.5263C49.03 48.7383 43.27 51.9183 41.5686 55.2463C41.462 55.4729 28.6286 83.2196 40.5713 136.586C40.7113 137.209 40.5806 137.862 40.2139 138.385C39.9779 138.721 17.4433 171.257 12.8206 218.818L109.763 126.913L104.213 87.9383C104.201 87.8543 104.193 87.773 104.19 87.689C104.17 87.0756 103.737 72.5183 105.203 59.5103C105.281 58.8156 104.963 58.0303 104.259 57.1743C101.11 53.3476 90.3899 48.6316 74.2926 47.3183C68.2259 46.8209 62.9393 46.9556 58.4793 47.5263ZM10.3766 226.777C9.95797 226.83 9.52459 226.769 9.12592 226.581C8.28326 226.186 7.76862 225.316 7.82729 224.386C10.8633 176.733 32.1633 142.373 35.9393 136.626C23.9793 82.1809 36.9499 54.3956 37.5113 53.233C41.5286 45.3636 56.1046 41.285 74.6606 42.8009C90.0553 44.0583 103.047 48.5703 107.758 54.293C109.641 56.5849 109.855 58.6703 109.706 60.0156C108.345 72.0796 108.675 85.9823 108.715 87.4249L114.411 127.434C114.514 128.161 114.261 128.893 113.727 129.398L11.6473 226.174C11.2886 226.513 10.842 226.717 10.3766 226.777Z" fill="#AD0000"/>
<path d="M131.121 29.7422C138.326 25.2288 145.229 23.2675 146.542 25.3622C147.854 27.4582 143.078 32.8142 135.875 37.3288C128.671 41.8435 121.769 43.8035 120.455 41.7089C119.143 39.6142 123.918 34.2568 131.121 29.7422Z" fill="#EA2A21"/>
<path d="M46.7819 56.0731C47.0659 52.5958 59.2152 50.7478 73.9192 51.9491C88.6232 53.1505 100.313 56.9438 100.027 60.4225C99.7432 63.9025 87.5939 65.7478 72.8899 64.5478C58.1872 63.3478 46.4979 59.5531 46.7819 56.0731Z" fill="#D11313"/>
<path d="M190.487 8.8944C198.593 7.41173 205.482 7.95304 205.875 10.101C206.269 12.2504 200.015 15.1943 191.91 16.677C183.806 18.1597 176.917 17.6197 176.523 15.4691C176.13 13.3197 182.382 10.3757 190.487 8.8944Z" fill="#EA2A21"/>
<path d="M230.654 10.9997C230.937 8.9584 237.485 8.17836 245.278 9.25703C253.074 10.3357 259.163 12.8651 258.882 14.9051C258.599 16.9477 252.05 17.7277 244.257 16.6477C236.461 15.569 230.371 13.0397 230.654 10.9997Z" fill="#EA2A21"/>
<path d="M122.69 40.3023C124.437 40.2889 128.865 39.0449 134.665 35.4089C140.466 31.7756 143.522 28.3356 144.291 26.7676C142.545 26.7796 138.117 28.0263 132.318 31.6609C126.517 35.2956 123.459 38.7356 122.69 40.3023ZM123.994 44.7249C121.646 45.0249 119.605 44.6289 118.529 42.9102C115.05 37.3582 128.382 28.7823 129.911 27.8223C131.443 26.8623 144.975 18.6089 148.453 24.1583C148.453 24.1583 148.453 24.1583 148.454 24.1583C151.934 29.7116 138.603 38.2876 137.071 39.2462C136.013 39.9089 129.234 44.0529 123.994 44.7249Z" fill="#AD0000"/>
<path d="M49.206 56.2759C50.77 57.9919 59.3046 61.1692 73.07 62.2932C86.8366 63.4159 95.774 61.6652 97.598 60.2266C96.034 58.5106 87.4966 55.3332 73.7313 54.2079C59.962 53.0825 51.0247 54.8359 49.206 56.2759ZM91.202 66.6266C83.5193 67.6119 74.3833 66.9439 72.702 66.8066C65.4193 66.2132 58.6047 64.9746 53.5113 63.3226C47.2193 61.2799 44.278 58.8492 44.5193 55.8932C44.762 52.9359 48.0566 51.0145 54.598 50.0185C59.8926 49.2239 66.818 49.0999 74.098 49.6932C77.0526 49.9359 102.957 52.2932 102.278 60.6092V60.6106C101.989 64.1892 97.01 65.8812 91.202 66.6266Z" fill="#AD0000"/>
<path d="M179.567 14.9196C181.515 15.3463 185.705 15.517 191.498 14.4556C197.293 13.3956 201.153 11.7556 202.822 10.6676C200.875 10.2383 196.687 10.0689 190.89 11.1289C185.098 12.1889 181.237 13.8303 179.567 14.9196ZM189.375 19.3649C184.262 20.0196 175.139 20.5156 174.291 15.8849C173.227 10.0596 187.253 7.18891 190.075 6.67425C194.182 5.92491 198.15 5.64359 201.245 5.88759C205.389 6.21293 207.695 7.49694 208.099 9.70361C209.163 15.5263 195.135 18.3969 192.315 18.9116C191.737 19.0156 190.687 19.1969 189.375 19.3649Z" fill="#AD0000"/>
<path d="M233.935 11.4692C235.693 12.4119 239.333 13.6985 244.571 14.4225C249.81 15.1479 253.663 14.8986 255.611 14.4692C253.854 13.5266 250.214 12.2412 244.974 11.5158C239.734 10.7932 235.885 11.0412 233.935 11.4692ZM255.035 19.1692C254.894 19.1866 254.769 19.2012 254.658 19.2158C251.709 19.5665 247.905 19.4585 243.95 18.9105C241.218 18.5345 227.635 16.3625 228.415 10.7092C229.202 5.05854 242.866 6.65319 245.595 7.03186C249.55 7.57853 253.239 8.50921 255.983 9.64787C257.369 10.2225 261.581 11.9732 261.129 15.2359C260.711 18.2572 256.793 18.9426 255.035 19.1692Z" fill="#AD0000"/>
<path d="M344.361 413.652C327.306 452.08 303.069 484.764 270.405 502.025H270.401C256.406 509.421 240.855 513.984 223.666 514.957L223.65 514.96C206.359 515.936 187.402 513.277 166.687 506.212C77.29 475.73 -27.6914 332.337 10.0899 224.53C32.8192 159.669 78.7633 136.276 111.763 127.93C111.769 127.934 111.767 127.93 111.771 127.929C133.611 122.404 149.779 123.476 149.779 123.476C150.183 122.46 150.61 121.437 151.062 120.405C163.049 93.0051 191.905 61.7744 232.057 49.7211C270.547 38.1691 312.329 40.4198 318.461 40.8345C318.699 40.8358 333.961 47.9478 328.685 76.5851C325.282 95.0891 317.694 109.45 309.891 108.373C274.518 106.729 255.129 116.076 255.129 116.076L255.115 116.082V116.088C285.095 124.276 314.502 141.177 338.405 168.208C392.134 228.981 376.07 342.18 344.361 413.652Z" fill="#EA2A21"/>
<path d="M328.682 76.5865C325.279 95.0905 317.691 109.452 309.889 108.375C323.183 103.316 332.981 53.4919 262.542 57.9812C192.106 62.4692 152.57 122.424 152.57 122.424C152.57 122.424 151.985 121.659 151.059 120.405C163.046 93.0052 191.902 61.7745 232.054 49.7212C270.545 38.1692 312.327 40.4198 318.458 40.8345C318.697 40.8372 333.959 47.9492 328.682 76.5865Z" fill="#FC3838"/>
<path d="M306.809 73.5356C308.751 59.5022 313.794 48.6062 318.074 49.1982C322.354 49.7916 324.249 61.6462 322.307 75.6809C320.365 89.7142 315.321 100.61 311.042 100.017C306.762 99.4249 304.866 87.5689 306.809 73.5356Z" fill="#D11313"/>
<path d="M311.327 97.9891C312.999 98.2211 318.125 90.8384 320.261 75.4197C321.171 68.8304 321.251 62.5544 320.485 57.7477C319.67 52.6531 318.234 51.3331 317.795 51.2731C317.373 51.2091 315.619 52.0851 313.449 56.7757C311.403 61.1904 309.777 67.2531 308.863 73.8424C306.729 89.2531 309.623 97.7531 311.327 97.9891ZM311.993 102.097C311.59 102.149 311.178 102.148 310.762 102.09V102.089C304.027 101.157 302.934 86.4984 304.766 73.2744C305.731 66.2904 307.483 59.8144 309.693 55.037C312.951 47.9984 316.21 46.8731 318.363 47.1731C320.519 47.4691 323.349 49.4344 324.571 57.0957C325.402 62.293 325.327 69.0037 324.359 75.9877C322.642 88.3917 318.105 101.313 311.993 102.097Z" fill="#AD0000"/>
<path d="M106.022 231.041C115.406 223.615 125.777 221.087 129.186 225.397C132.595 229.703 127.75 239.215 118.366 246.641C108.982 254.067 98.6099 256.594 95.2019 252.286C91.7926 247.978 96.6379 238.466 106.022 231.041Z" fill="#D11313"/>
<path d="M122.327 225.646C118.374 226.154 112.841 228.536 107.43 232.817C103.139 236.21 99.7325 240.132 97.8339 243.861C96.2632 246.946 95.9419 249.57 96.9805 250.881C98.0165 252.19 100.646 252.486 104.007 251.664C108.073 250.673 112.673 248.258 116.961 244.865C125.67 237.974 129.661 229.645 127.411 226.8C126.559 225.725 124.737 225.337 122.327 225.646ZM102.706 256.51C98.5552 257.042 95.3125 256.07 93.4285 253.69C91.1979 250.874 91.3285 246.652 93.7979 241.804C95.9872 237.508 99.8299 233.054 104.619 229.265C115.321 220.797 126.646 218.529 130.965 223.99C135.283 229.45 130.471 239.95 119.773 248.417C114.986 252.206 109.767 254.922 105.081 256.065C104.261 256.264 103.466 256.412 102.706 256.51Z" fill="#AD0000"/>
<path d="M221.807 199.2C222.454 193.744 232.613 190.465 244.495 191.876C256.379 193.285 265.487 198.849 264.839 204.304C264.193 209.76 254.035 213.039 242.153 211.629C230.27 210.22 221.161 204.655 221.807 199.2Z" fill="#D11313"/>
<path d="M242.438 209.374C253.465 210.682 262.183 207.632 262.611 204.033C263.041 200.433 255.275 195.428 244.249 194.12C238.818 193.474 233.634 193.83 229.654 195.113C226.358 196.177 224.271 197.801 224.077 199.46C223.881 201.12 225.527 203.186 228.482 204.993C232.05 207.174 237.006 208.73 242.438 209.374ZM252.951 213.905C249.625 214.333 245.882 214.345 241.902 213.873C235.838 213.153 230.233 211.372 226.117 208.857C221.477 206.021 219.153 202.496 219.575 198.926C219.999 195.357 223.082 192.473 228.261 190.801C232.846 189.321 238.715 188.902 244.781 189.621C258.329 191.229 267.93 197.654 267.109 204.568C266.53 209.45 260.953 212.88 252.951 213.905Z" fill="#AD0000"/>
<path d="M344.359 413.651C327.307 452.082 303.07 484.764 270.403 502.025C345.11 434.398 368.506 333.71 347.178 238.327C326.009 143.658 256.159 116.487 255.113 116.087C285.093 124.274 314.503 141.179 338.403 168.206C392.134 228.979 376.071 342.181 344.359 413.651Z" fill="#FC3838"/>
<path d="M223.647 514.96C206.358 515.937 187.401 513.277 166.685 506.213C77.2912 475.73 -27.6915 332.338 10.0898 224.53C32.8192 159.669 78.7645 136.274 111.765 127.929C105.273 130.862 22.9312 170.214 21.5285 282.834C20.0752 400.069 144.818 513.538 223.647 514.96Z" fill="#D11313"/>
<path d="M129.983 126.788C120.341 128.024 107.967 130.575 94.7473 135.756C67.698 146.353 31.4259 170.491 12.2233 225.28C-2.06206 266.044 3.66066 316.451 28.3407 367.212C59.5153 431.335 115.406 486.335 167.415 504.071C263.863 536.961 315.747 472.557 342.289 412.733C377.042 334.407 386.281 225.78 336.707 169.709C314.598 144.701 286.17 126.913 254.501 118.268C253.435 117.977 252.734 116.956 252.845 115.853C252.935 114.971 253.523 114.244 254.323 113.953C256.519 112.94 275.863 104.524 309.994 106.109C310.062 106.112 310.131 106.118 310.199 106.126C315.807 106.912 323.87 94.8385 326.439 76.2745C328.402 62.0865 325.269 49.5199 321.321 44.9026C320.626 44.0905 319.558 43.1185 318.418 43.0972C313.595 42.7772 271.155 40.3492 232.703 51.8932C191.81 64.1665 162.65 97.1078 151.887 124.309C151.525 125.224 150.613 125.803 149.633 125.736C149.497 125.729 141.789 125.273 129.983 126.788ZM232.338 516.44C211.714 519.086 189.525 516.399 165.954 508.359C112.877 490.259 55.9366 434.332 24.2687 369.193C-0.944682 317.337 -6.738 265.696 7.94866 223.783C27.75 167.281 65.2806 142.395 93.278 131.467C119.59 121.199 142.097 120.981 148.283 121.148C159.906 93.2305 189.803 60.0425 231.399 47.5559C269.805 36.0305 310.787 38.0532 318.61 38.5732C320.061 38.5985 322.411 39.2105 324.765 41.9598C330.338 48.4812 332.873 62.8478 330.927 76.8972C328.101 97.3305 318.993 111.792 309.69 110.631C286.714 109.577 270.521 113.275 262.301 115.845C292.169 125.3 318.951 142.788 340.101 166.709C364.811 194.656 377.114 236.244 375.686 286.98C374.507 328.817 363.843 375.323 346.431 414.571C328.763 454.392 305.854 483.168 278.341 500.097C264.05 508.892 248.686 514.341 232.338 516.44Z" fill="#AD0000"/>
<path d="M218.762 369.85C191.806 377.766 175.907 364 174.101 352.548C174.025 352.086 173.978 351.625 173.945 351.174C173.823 349.153 174.162 347.237 174.986 345.57C179.294 336.8 194.855 343.022 210.73 338.969C226.607 334.924 236.127 319.864 244.37 325.197C246.297 326.446 247.766 328.329 248.707 330.64C253.133 341.525 245.889 361.885 218.762 369.85Z" fill="#22213F"/>
<path d="M248.706 330.639L248.698 330.643C214.958 368.225 174.099 352.548 174.099 352.548L173.943 351.175C173.822 349.153 174.161 347.237 174.985 345.571C179.293 336.8 194.854 343.023 210.729 338.969C226.606 334.924 236.126 319.864 244.369 325.197C246.295 326.447 247.765 328.329 248.706 330.639Z" fill="white"/>
<path d="M219.611 146.06C219.163 146.117 218.695 146.042 218.266 145.814C183.514 127.429 150.018 125.754 149.683 125.738C148.435 125.684 147.465 124.626 147.521 123.377C147.575 122.126 148.637 121.154 149.882 121.213C151.286 121.274 184.689 122.925 220.383 141.809C221.491 142.393 221.911 143.765 221.327 144.87C220.969 145.549 220.317 145.968 219.611 146.06Z" fill="#AD0000"/>
<path d="M57.1806 140.48C45.534 141.974 37.9526 139.342 37.6006 139.216C36.422 138.794 35.8073 137.5 36.2273 136.321C36.6487 135.144 37.942 134.53 39.1166 134.948C39.2513 134.994 47.9073 137.926 60.6393 135.312C61.8873 135.064 63.062 135.849 63.3153 137.074C63.566 138.3 62.7753 139.498 61.55 139.749C60.0406 140.061 58.5806 140.298 57.1806 140.48Z" fill="#AD0000"/>
<path d="M222.122 125.797C221.162 125.921 220.191 125.413 219.771 124.485C219.258 123.345 219.762 122.004 220.901 121.488C237.333 114.05 254.387 113.825 255.105 113.817C256.354 113.805 257.378 114.812 257.387 116.062C257.399 117.313 256.397 118.337 255.145 118.348C254.975 118.349 238.299 118.586 222.77 125.614C222.558 125.709 222.339 125.77 222.122 125.797Z" fill="#AD0000"/>
<path d="M196.043 371.512C196.043 371.512 202.999 362.8 216.845 358.925C230.69 355.049 240.69 357.473 240.69 357.473C240.69 357.473 224.49 375.329 196.043 371.512Z" fill="#EA2A21"/>
<path d="M177.015 346.572C175.15 350.37 176.451 355.805 180.335 360.418C183.242 363.872 194.555 374.604 218.126 367.68C237.615 361.957 246.046 349.714 247.435 340.165C248.277 334.37 246.631 329.364 243.137 327.101C239.937 325.029 236.135 327.405 229.693 331.785C224.519 335.301 218.657 339.289 211.287 341.168C204.521 342.89 197.959 342.833 192.169 342.78C183.717 342.706 178.847 342.842 177.015 346.572ZM209.797 374.076C189.974 376.621 179.785 366.797 176.871 363.336C171.83 357.348 170.291 349.985 172.95 344.573C176.131 338.104 183.583 338.172 192.211 338.249C197.725 338.301 203.974 338.357 210.169 336.778C216.767 335.097 222.282 331.348 227.149 328.04C233.613 323.645 239.721 319.493 245.599 323.298C250.598 326.536 253.018 333.248 251.917 340.818C250.326 351.757 240.947 365.701 219.402 372.026C215.978 373.032 212.777 373.693 209.797 374.076Z" fill="#22213F"/>
<path d="M247.062 255.776C257.774 252.013 271.435 263.127 277.573 280.597C283.713 298.071 280.004 315.285 269.292 319.049C258.58 322.812 244.921 311.699 238.781 294.228C232.643 276.755 236.35 259.54 247.062 255.776Z" fill="white"/>
<path d="M250.985 270.127C257.623 267.845 266.025 274.771 269.75 285.598C273.475 296.426 271.111 307.055 264.474 309.339C257.834 311.623 249.434 304.697 245.709 293.869C241.985 283.041 244.346 272.411 250.985 270.127Z" fill="#22213F"/>
<path d="M254.883 282.304C254.371 284.373 252.035 285.57 249.666 284.984C247.298 284.396 245.795 282.241 246.309 280.174C246.823 278.106 249.159 276.906 251.526 277.496C253.894 278.082 255.397 280.237 254.883 282.304Z" fill="white"/>
<path d="M249.973 257.394C249.227 257.49 248.499 257.661 247.793 257.908C238.438 261.196 235.282 277.481 240.898 293.469C246.515 309.46 259.179 320.184 268.519 316.904C277.875 313.617 281.034 297.332 275.414 281.342C272.582 273.281 268.025 266.404 262.582 261.976C258.275 258.473 253.882 256.892 249.973 257.394ZM266.861 321.928C255.489 323.388 242.709 312.282 236.625 294.97C229.971 276.034 234.218 257.877 246.291 253.633C252.247 251.548 259.047 253.257 265.442 258.46C271.523 263.408 276.583 271.002 279.689 279.841C286.342 298.778 282.097 316.936 270.022 321.178C268.987 321.542 267.93 321.79 266.861 321.928Z" fill="#AD0000"/>
<path d="M356.551 102.923C356.551 77.1186 377.47 56.1999 403.274 56.1999C429.078 56.1999 449.997 77.1186 449.997 102.923C449.997 128.727 429.078 149.645 403.274 149.645C398.053 149.645 393.03 148.788 388.342 147.208L365.867 157.413L358.682 160.677L366.195 131.348C360.149 123.473 356.551 113.619 356.551 102.923Z" fill="#E6ECFF"/>
<path d="M403.273 58.0504C378.53 58.0504 358.401 78.1797 358.401 102.922C358.401 112.89 361.603 122.33 367.661 130.22C368.006 130.67 368.126 131.256 367.987 131.806L361.433 157.394L387.575 145.52C388.002 145.328 388.489 145.301 388.933 145.453C393.541 147.006 398.363 147.793 403.273 147.793C428.015 147.793 448.146 127.664 448.146 102.921C448.146 78.1784 428.015 58.0504 403.273 58.0504ZM358.681 162.526C358.254 162.526 357.83 162.38 357.493 162.096C356.946 161.637 356.713 160.906 356.887 160.218L364.181 131.749C357.974 123.356 354.702 113.409 354.702 102.922C354.702 76.1371 376.491 54.3477 403.274 54.3477C430.058 54.3477 451.847 76.1371 451.847 102.922C451.847 129.705 430.058 151.496 403.274 151.496C398.213 151.496 393.227 150.721 388.45 149.189L359.446 162.361C359.202 162.473 358.939 162.526 358.681 162.526Z" fill="#8196C9"/>
<path d="M124.649 335.876C124.11 335.945 123.546 335.823 123.066 335.488C122.041 334.773 121.786 333.36 122.502 332.336C134.059 315.739 149.871 313.151 159.655 313.411C155.153 311.045 150.661 309.805 150.591 309.788C149.383 309.46 148.67 308.217 148.997 307.011C149.325 305.801 150.567 305.091 151.773 305.413C152.262 305.547 163.807 308.719 169.663 315.223C170.341 315.975 170.438 317.083 169.899 317.943C169.361 318.797 168.321 319.196 167.349 318.912C166.331 318.623 142.173 312.019 126.219 334.923C125.838 335.468 125.261 335.796 124.649 335.876Z" fill="#22213F"/>
<path d="M115.041 139.064C95.7327 139.846 56.65 164.809 45.778 188.522C36.0593 209.724 57.7526 214.748 77.078 190.456C96.402 166.162 142.526 137.949 115.041 139.064Z" fill="#FC3838"/>
<path d="M41.906 225.077C25.2913 226.265 12.9473 275.654 30.998 285.464C49.0486 295.276 62.706 223.593 41.906 225.077Z" fill="#FC3838"/>
<path d="M426.583 86.4971C421.202 81.1131 412.471 81.1131 407.09 86.4971L403.274 90.3118L399.459 86.4971C396.769 83.8038 393.239 82.4585 389.713 82.4585C386.185 82.4585 382.657 83.8038 379.963 86.4971C374.581 91.8798 374.581 100.609 379.963 105.992L383.778 109.806L403.274 129.3L422.77 109.806L426.583 105.992C429.274 103.3 430.621 99.7718 430.621 96.2425C430.621 92.7158 429.274 89.1878 426.583 86.4971Z" fill="#EA2A21"/>
<path d="M389.713 84.3078C386.523 84.3078 383.527 85.5492 381.271 87.8038C376.618 92.4585 376.618 100.031 381.271 104.683L403.274 126.683L425.275 104.683C427.531 102.429 428.771 99.4318 428.771 96.2425C428.771 93.0585 427.531 90.0612 425.275 87.8038C423.022 85.5505 420.025 84.3092 416.837 84.3092C413.65 84.3092 410.654 85.5505 408.399 87.8038L404.583 91.6199C404.237 91.9652 403.767 92.1612 403.275 92.1612C402.785 92.1612 402.315 91.9652 401.967 91.6185L398.154 87.8025C395.895 85.5505 392.898 84.3078 389.713 84.3078ZM403.274 131.152C402.8 131.152 402.327 130.969 401.966 130.611L378.656 107.3C372.559 101.204 372.559 91.2852 378.656 85.1879C381.61 82.2345 385.538 80.6078 389.713 80.6078C393.887 80.6078 397.815 82.2345 400.77 85.1879L403.275 87.6958L405.782 85.1879C408.735 82.2359 412.661 80.6092 416.838 80.6092C421.015 80.6092 424.941 82.2359 427.894 85.1892C430.847 88.1452 432.474 92.0705 432.474 96.2439C432.474 100.421 430.847 104.348 427.894 107.3L404.584 130.611C404.22 130.969 403.747 131.152 403.274 131.152Z" fill="#AD0000"/>
<path d="M397.555 327.35C397.508 327.35 397.481 327.35 397.472 327.35C396.644 327.334 395.986 326.652 396 325.824C396.016 324.996 396.694 324.386 397.525 324.35C397.859 324.33 434.562 324.572 449.223 288.93C449.539 288.164 450.414 287.797 451.181 288.114C451.948 288.428 452.313 289.305 451.997 290.071C436.895 326.787 399.586 327.35 397.555 327.35Z" fill="#ACBFE5"/>
<path d="M433.16 332.252C432.544 332.252 431.967 331.869 431.748 331.256C431.47 330.477 431.877 329.618 432.656 329.339C432.797 329.289 446.816 324.127 453.599 309.64C453.951 308.89 454.844 308.565 455.593 308.917C456.344 309.269 456.667 310.161 456.316 310.911C448.986 326.567 434.285 331.944 433.663 332.165C433.497 332.225 433.327 332.252 433.16 332.252Z" fill="#ACBFE5"/>
</svg>
